<svg id="Group_725" data-name="Group 725" xmlns="http://www.w3.org/2000/svg" xmlns:xlink="http://www.w3.org/1999/xlink" width="280" height="79.031" viewBox="0 0 280 79.031">
  <defs>
    <clipPath id="clip-path">
      <rect id="Rectangle_220" data-name="Rectangle 220" width="280" height="79.031" fill="#db0d15"/>
    </clipPath>
  </defs>
  <g id="Group_10" data-name="Group 10" clip-path="url(#clip-path)">
    <path id="Path_486" data-name="Path 486" d="M188.539,186.156h-1.415a1.868,1.868,0,0,0-1.223.463l-.406.351a.313.313,0,0,0,.179.55h1.415a1.87,1.87,0,0,0,1.224-.463l.406-.35a.313.313,0,0,0-.181-.551" transform="translate(-120.03 -120.528)" fill="#db0d15"/>
    <path id="Path_487" data-name="Path 487" d="M193.655,180.241l-1.411.1a1.85,1.85,0,0,0-1.186.545l-.383.379a.314.314,0,0,0,.217.536l1.414-.1a1.865,1.865,0,0,0,1.187-.547l.381-.379a.312.312,0,0,0-.219-.534" transform="translate(-123.395 -116.698)" fill="#db0d15"/>
    <path id="Path_488" data-name="Path 488" d="M198.374,173.99l-1.4.2a1.86,1.86,0,0,0-1.146.628l-.352.4a.313.313,0,0,0,.253.519l1.4-.2a1.869,1.869,0,0,0,1.146-.627l.354-.407a.312.312,0,0,0-.255-.517" transform="translate(-126.51 -112.649)" fill="#db0d15"/>
    <path id="Path_489" data-name="Path 489" d="M202.665,167.437l-1.385.292a1.874,1.874,0,0,0-1.1.707l-.324.429a.311.311,0,0,0,.289.5l1.386-.29a1.89,1.89,0,0,0,1.1-.708l.326-.429a.312.312,0,0,0-.29-.5" transform="translate(-129.358 -108.404)" fill="#db0d15"/>
    <path id="Path_490" data-name="Path 490" d="M206.511,160.611l-1.361.389a1.868,1.868,0,0,0-1.047.782l-.3.448a.315.315,0,0,0,.327.48l1.358-.39a1.872,1.872,0,0,0,1.049-.782l.295-.45a.313.313,0,0,0-.327-.477" transform="translate(-131.924 -103.981)" fill="#db0d15"/>
    <path id="Path_491" data-name="Path 491" d="M209.9,153.545l-1.329.484a1.856,1.856,0,0,0-.992.852l-.261.468a.312.312,0,0,0,.357.454L209,155.32a1.853,1.853,0,0,0,.992-.851l.263-.47a.313.313,0,0,0-.359-.453" transform="translate(-134.204 -99.403)" fill="#db0d15"/>
    <path id="Path_492" data-name="Path 492" d="M212.8,146.272l-1.292.576a1.859,1.859,0,0,0-.929.921l-.23.484a.314.314,0,0,0,.389.429l1.294-.578a1.861,1.861,0,0,0,.928-.917l.23-.486a.313.313,0,0,0-.389-.428" transform="translate(-136.176 -94.689)" fill="#db0d15"/>
    <path id="Path_493" data-name="Path 493" d="M215.217,138.832l-1.25.664a1.885,1.885,0,0,0-.863.984l-.194.5a.312.312,0,0,0,.416.4l1.251-.663a1.867,1.867,0,0,0,.863-.984l.192-.5a.312.312,0,0,0-.416-.4" transform="translate(-137.837 -89.866)" fill="#db0d15"/>
    <path id="Path_494" data-name="Path 494" d="M217.125,131.263l-1.2.748a1.872,1.872,0,0,0-.793,1.041l-.159.513a.314.314,0,0,0,.444.371l1.2-.751a1.858,1.858,0,0,0,.791-1.042l.158-.512a.311.311,0,0,0-.444-.369" transform="translate(-139.178 -84.959)" fill="#db0d15"/>
    <path id="Path_495" data-name="Path 495" d="M218.519,123.593l-1.145.832a1.867,1.867,0,0,0-.718,1.093l-.122.523a.312.312,0,0,0,.469.336l1.145-.831a1.862,1.862,0,0,0,.716-1.091l.124-.523a.313.313,0,0,0-.469-.338" transform="translate(-140.191 -79.986)" fill="#db0d15"/>
    <path id="Path_496" data-name="Path 496" d="M219.393,115.868l-1.084.91a1.865,1.865,0,0,0-.639,1.141l-.084.529a.313.313,0,0,0,.493.305l1.082-.909a1.876,1.876,0,0,0,.64-1.141l.084-.531a.312.312,0,0,0-.49-.3" transform="translate(-140.874 -74.978)" fill="#db0d15"/>
    <path id="Path_497" data-name="Path 497" d="M219.737,108.119l-1.017.983a1.862,1.862,0,0,0-.558,1.183l-.048.535a.313.313,0,0,0,.512.269l1.018-.984a1.848,1.848,0,0,0,.557-1.181l.048-.534a.312.312,0,0,0-.51-.271" transform="translate(-141.218 -69.952)" fill="#db0d15"/>
    <path id="Path_498" data-name="Path 498" d="M218.611,101.436a1.885,1.885,0,0,0-.474,1.219l-.009.538a.311.311,0,0,0,.527.232l.948-1.051a1.868,1.868,0,0,0,.473-1.218l.011-.536a.313.313,0,0,0-.529-.235Z" transform="translate(-141.228 -64.936)" fill="#db0d15"/>
    <path id="Path_499" data-name="Path 499" d="M217.922,93.825a1.878,1.878,0,0,0-.39,1.247l.028.538a.312.312,0,0,0,.545.194l.871-1.112a1.873,1.873,0,0,0,.388-1.249l-.026-.538a.313.313,0,0,0-.545-.194Z" transform="translate(-140.841 -59.957)" fill="#db0d15"/>
    <path id="Path_500" data-name="Path 500" d="M216.386,87.573l.064.534a.313.313,0,0,0,.558.156l.792-1.172a1.878,1.878,0,0,0,.3-1.272l-.065-.533a.312.312,0,0,0-.556-.157l-.793,1.17a1.864,1.864,0,0,0-.3,1.273" transform="translate(-140.091 -55.038)" fill="#db0d15"/>
    <path id="Path_501" data-name="Path 501" d="M214.711,80.185l.1.528a.314.314,0,0,0,.567.119l.706-1.224a1.88,1.88,0,0,0,.211-1.291l-.1-.527a.312.312,0,0,0-.565-.119l-.707,1.224a1.87,1.87,0,0,0-.212,1.29" transform="translate(-138.994 -50.199)" fill="#db0d15"/>
    <path id="Path_502" data-name="Path 502" d="M212.524,72.954l.138.519a.313.313,0,0,0,.571.08l.621-1.274a1.877,1.877,0,0,0,.119-1.3l-.138-.52a.313.313,0,0,0-.572-.078l-.622,1.272a1.869,1.869,0,0,0-.117,1.3" transform="translate(-137.558 -45.467)" fill="#db0d15"/>
    <path id="Path_503" data-name="Path 503" d="M209.824,65.906l.174.507a.313.313,0,0,0,.577.042l.53-1.313a1.869,1.869,0,0,0,.027-1.307l-.174-.509a.312.312,0,0,0-.576-.039l-.53,1.312a1.859,1.859,0,0,0-.027,1.307" transform="translate(-135.784 -40.863)" fill="#db0d15"/>
    <path id="Path_504" data-name="Path 504" d="M206.636,59.081l.207.5a.313.313,0,0,0,.577,0l.44-1.347a1.863,1.863,0,0,0-.062-1.3l-.21-.494a.312.312,0,0,0-.578,0l-.436,1.347a1.866,1.866,0,0,0,.063,1.3" transform="translate(-133.69 -36.41)" fill="#db0d15"/>
    <path id="Path_505" data-name="Path 505" d="M203.208,53a.312.312,0,0,0,.576-.044l.343-1.372a1.867,1.867,0,0,0-.153-1.3l-.243-.479a.314.314,0,0,0-.578.042l-.343,1.373a1.876,1.876,0,0,0,.153,1.3Z" transform="translate(-131.276 -32.136)" fill="#db0d15"/>
    <path id="Path_506" data-name="Path 506" d="M199.114,46.7a.314.314,0,0,0,.574-.084l.246-1.393a1.884,1.884,0,0,0-.245-1.285l-.275-.461a.313.313,0,0,0-.572.083l-.245,1.394a1.868,1.868,0,0,0,.242,1.284Z" transform="translate(-128.564 -28.05)" fill="#db0d15"/>
    <path id="Path_507" data-name="Path 507" d="M194.579,40.712a.312.312,0,0,0,.564-.121l.149-1.406a1.852,1.852,0,0,0-.332-1.264l-.308-.442a.312.312,0,0,0-.563.123l-.149,1.407a1.871,1.871,0,0,0,.334,1.264Z" transform="translate(-125.561 -24.179)" fill="#db0d15"/>
    <path id="Path_508" data-name="Path 508" d="M189.628,35.072a.313.313,0,0,0,.555-.161l.048-1.414a1.851,1.851,0,0,0-.418-1.237l-.337-.417a.312.312,0,0,0-.555.16l-.049,1.414a1.853,1.853,0,0,0,.422,1.237Z" transform="translate(-122.286 -20.541)" fill="#db0d15"/>
    <path id="Path_509" data-name="Path 509" d="M183.823,29.411l.366.394a.312.312,0,0,0,.542-.2l-.048-1.416a1.881,1.881,0,0,0-.507-1.2l-.363-.394a.316.316,0,0,0-.546.2l.049,1.416a1.88,1.88,0,0,0,.507,1.205" transform="translate(-118.657 -17.152)" fill="#db0d15"/>
    <path id="Path_510" data-name="Path 510" d="M177.919,24.571l.393.368a.313.313,0,0,0,.527-.238l-.148-1.406a1.859,1.859,0,0,0-.589-1.167l-.393-.369a.313.313,0,0,0-.527.238l.147,1.407a1.878,1.878,0,0,0,.589,1.167" transform="translate(-114.717 -14.035)" fill="#db0d15"/>
    <path id="Path_511" data-name="Path 511" d="M171.019,19.027a1.877,1.877,0,0,0,.667,1.124l.416.338a.314.314,0,0,0,.512-.273l-.245-1.394A1.877,1.877,0,0,0,171.7,17.7l-.418-.339a.312.312,0,0,0-.508.275Z" transform="translate(-110.566 -11.195)" fill="#db0d15"/>
    <path id="Path_512" data-name="Path 512" d="M164.419,15.1a1.867,1.867,0,0,0,.745,1.073l.437.309a.312.312,0,0,0,.49-.307l-.342-1.373A1.878,1.878,0,0,0,165,13.73l-.438-.308a.314.314,0,0,0-.491.308Z" transform="translate(-106.226 -8.654)" fill="#db0d15"/>
    <path id="Path_513" data-name="Path 513" d="M157.561,11.645a1.863,1.863,0,0,0,.817,1.019l.46.279a.313.313,0,0,0,.467-.342l-.438-1.346a1.858,1.858,0,0,0-.818-1.017l-.459-.279a.312.312,0,0,0-.466.34Z" transform="translate(-101.721 -6.419)" fill="#db0d15"/>
    <path id="Path_514" data-name="Path 514" d="M150.48,8.68a1.866,1.866,0,0,0,.888.961l.476.244a.314.314,0,0,0,.443-.374l-.532-1.31a1.855,1.855,0,0,0-.886-.961l-.48-.246a.312.312,0,0,0-.44.373Z" transform="translate(-97.073 -4.507)" fill="#db0d15"/>
    <path id="Path_515" data-name="Path 515" d="M143.205,6.21a1.859,1.859,0,0,0,.952.9l.5.214a.312.312,0,0,0,.414-.4l-.62-1.272a1.855,1.855,0,0,0-.952-.9L143,4.536a.313.313,0,0,0-.415.4Z" transform="translate(-92.3 -2.921)" fill="#db0d15"/>
    <path id="Path_516" data-name="Path 516" d="M135.78,4.259a1.865,1.865,0,0,0,1.012.826l.507.176a.313.313,0,0,0,.387-.431l-.709-1.224a1.861,1.861,0,0,0-1.013-.826l-.507-.177a.313.313,0,0,0-.385.432Z" transform="translate(-87.429 -1.673)" fill="#db0d15"/>
    <path id="Path_517" data-name="Path 517" d="M128.237,2.826a1.881,1.881,0,0,0,1.068.754l.518.139a.313.313,0,0,0,.355-.458l-.793-1.172a1.864,1.864,0,0,0-1.066-.752l-.519-.143a.314.314,0,0,0-.354.458Z" transform="translate(-82.485 -0.766)" fill="#db0d15"/>
    <path id="Path_518" data-name="Path 518" d="M120.612,1.922a1.861,1.861,0,0,0,1.119.679l.526.1a.313.313,0,0,0,.323-.48l-.872-1.114a1.854,1.854,0,0,0-1.118-.677l-.526-.105a.312.312,0,0,0-.321.48Z" transform="translate(-77.49 -0.208)" fill="#db0d15"/>
    <path id="Path_519" data-name="Path 519" d="M112.941,1.555a1.876,1.876,0,0,0,1.165.6l.53.064a.312.312,0,0,0,.289-.5L113.979.667a1.862,1.862,0,0,0-1.163-.6L112.283,0a.312.312,0,0,0-.289.5Z" transform="translate(-72.466 0)" fill="#db0d15"/>
    <path id="Path_520" data-name="Path 520" d="M105.269,1.721a1.86,1.86,0,0,0,1.2.514l.534.031a.313.313,0,0,0,.254-.519l-1.02-.985a1.87,1.87,0,0,0-1.2-.515L104.5.217a.313.313,0,0,0-.251.521Z" transform="translate(-67.442 -0.14)" fill="#db0d15"/>
    <path id="Path_521" data-name="Path 521" d="M97.623,2.412a1.844,1.844,0,0,0,1.233.429l.538-.007a.311.311,0,0,0,.215-.535l-1.083-.911A1.874,1.874,0,0,0,97.289.96l-.537.008a.312.312,0,0,0-.214.536Z" transform="translate(-62.44 -0.621)" fill="#db0d15"/>
    <path id="Path_522" data-name="Path 522" d="M90.048,3.564a1.864,1.864,0,0,0,1.261.343l.536-.045a.313.313,0,0,0,.177-.55l-1.145-.829a1.865,1.865,0,0,0-1.262-.347l-.535.044a.314.314,0,0,0-.177.552Z" transform="translate(-57.487 -1.378)" fill="#db0d15"/>
    <path id="Path_523" data-name="Path 523" d="M81.373,4.479l1.2.748a1.859,1.859,0,0,0,1.283.256l.532-.083a.314.314,0,0,0,.138-.563l-1.2-.748a1.86,1.86,0,0,0-1.282-.255l-.532.081a.314.314,0,0,0-.137.563" transform="translate(-52.601 -2.467)" fill="#db0d15"/>
    <path id="Path_524" data-name="Path 524" d="M73.99,6.734l1.253.663a1.858,1.858,0,0,0,1.3.167l.523-.12a.314.314,0,0,0,.1-.571l-1.25-.661a1.872,1.872,0,0,0-1.3-.169l-.524.124a.311.311,0,0,0-.1.568" transform="translate(-47.811 -3.881)" fill="#db0d15"/>
    <path id="Path_525" data-name="Path 525" d="M66.793,9.488l1.292.575a1.864,1.864,0,0,0,1.305.074l.516-.155a.315.315,0,0,0,.057-.578L68.67,8.832a1.868,1.868,0,0,0-1.305-.076l-.514.155a.314.314,0,0,0-.059.577" transform="translate(-43.138 -5.616)" fill="#db0d15"/>
    <path id="Path_526" data-name="Path 526" d="M59.816,12.721l1.329.482a1.855,1.855,0,0,0,1.308-.017l.5-.191a.313.313,0,0,0,.018-.578l-1.33-.484a1.87,1.87,0,0,0-1.307.018l-.5.191a.314.314,0,0,0-.018.579" transform="translate(-38.609 -7.655)" fill="#db0d15"/>
    <path id="Path_527" data-name="Path 527" d="M53.084,16.42l1.363.391a1.875,1.875,0,0,0,1.3-.109l.489-.224a.313.313,0,0,0-.024-.578l-1.359-.391a1.863,1.863,0,0,0-1.3.109l-.488.225a.313.313,0,0,0,.021.578" transform="translate(-34.238 -9.995)" fill="#db0d15"/>
    <path id="Path_528" data-name="Path 528" d="M46.641,20.571l1.384.3a1.876,1.876,0,0,0,1.292-.2l.47-.259a.312.312,0,0,0-.061-.575l-1.385-.295a1.868,1.868,0,0,0-1.29.2L46.577,20a.312.312,0,0,0,.063.574" transform="translate(-30.052 -12.625)" fill="#db0d15"/>
    <path id="Path_529" data-name="Path 529" d="M40.51,25.154l1.4.2a1.856,1.856,0,0,0,1.273-.288l.453-.291a.313.313,0,0,0-.1-.569l-1.4-.2a1.881,1.881,0,0,0-1.277.287l-.45.294a.313.313,0,0,0,.1.569" transform="translate(-26.071 -15.531)" fill="#db0d15"/>
    <path id="Path_530" data-name="Path 530" d="M34.728,30.141l1.411.1a1.861,1.861,0,0,0,1.25-.378l.431-.319a.312.312,0,0,0-.141-.561l-1.412-.1a1.859,1.859,0,0,0-1.252.375l-.43.323a.312.312,0,0,0,.142.561" transform="translate(-22.311 -18.697)" fill="#db0d15"/>
    <path id="Path_531" data-name="Path 531" d="M29.321,35.505h1.413a1.869,1.869,0,0,0,1.223-.463l.406-.351a.314.314,0,0,0-.18-.552H30.768a1.87,1.87,0,0,0-1.223.465l-.405.35a.313.313,0,0,0,.182.55" transform="translate(-18.797 -22.104)" fill="#db0d15"/>
    <path id="Path_532" data-name="Path 532" d="M24.311,41.064l1.412-.1a1.864,1.864,0,0,0,1.185-.546l.384-.379a.314.314,0,0,0-.219-.536l-1.413.1a1.863,1.863,0,0,0-1.187.547l-.381.378a.313.313,0,0,0,.219.536" transform="translate(-15.539 -25.577)" fill="#db0d15"/>
    <path id="Path_533" data-name="Path 533" d="M19.729,46.96l1.4-.2a1.858,1.858,0,0,0,1.146-.628l.353-.4a.312.312,0,0,0-.253-.519l-1.4.2a1.87,1.87,0,0,0-1.148.629l-.354.4a.315.315,0,0,0,.257.521" transform="translate(-12.558 -29.27)" fill="#db0d15"/>
    <path id="Path_534" data-name="Path 534" d="M15.591,53.169l1.384-.294a1.873,1.873,0,0,0,1.1-.706l.323-.429a.312.312,0,0,0-.29-.5l-1.384.294a1.859,1.859,0,0,0-1.1.709l-.326.427a.312.312,0,0,0,.29.5" transform="translate(-9.866 -33.173)" fill="#db0d15"/>
    <path id="Path_535" data-name="Path 535" d="M11.919,59.663l1.36-.39a1.866,1.866,0,0,0,1.048-.784l.3-.451a.314.314,0,0,0-.326-.478l-1.361.392a1.866,1.866,0,0,0-1.047.782l-.3.45a.314.314,0,0,0,.326.479" transform="translate(-7.474 -37.261)" fill="#db0d15"/>
    <path id="Path_536" data-name="Path 536" d="M8.733,66.416l1.329-.485a1.845,1.845,0,0,0,.992-.851l.262-.47a.312.312,0,0,0-.357-.453l-1.33.482a1.874,1.874,0,0,0-.992.854l-.263.47a.313.313,0,0,0,.359.454" transform="translate(-5.396 -41.528)" fill="#db0d15"/>
    <path id="Path_537" data-name="Path 537" d="M6.05,73.385l1.293-.576a1.866,1.866,0,0,0,.93-.919L8.5,71.4a.313.313,0,0,0-.389-.429l-1.292.574a1.88,1.88,0,0,0-.929.922l-.228.487a.312.312,0,0,0,.386.428" transform="translate(-3.648 -45.937)" fill="#db0d15"/>
    <path id="Path_538" data-name="Path 538" d="M3.885,80.539l1.249-.665A1.858,1.858,0,0,0,6,78.893l.195-.5a.313.313,0,0,0-.417-.4l-1.251.663a1.9,1.9,0,0,0-.863.983l-.191.5a.311.311,0,0,0,.416.4" transform="translate(-2.232 -50.475)" fill="#db0d15"/>
    <path id="Path_539" data-name="Path 539" d="M2.236,87.844l1.2-.748a1.889,1.889,0,0,0,.791-1.041l.158-.514a.314.314,0,0,0-.445-.37l-1.2.751a1.867,1.867,0,0,0-.793,1.04l-.157.512a.311.311,0,0,0,.442.37" transform="translate(-1.152 -55.118)" fill="#db0d15"/>
    <path id="Path_540" data-name="Path 540" d="M1.125,95.265l1.144-.831a1.872,1.872,0,0,0,.717-1.094l.123-.523a.313.313,0,0,0-.469-.339l-1.146.833a1.879,1.879,0,0,0-.717,1.094l-.121.523a.312.312,0,0,0,.469.337" transform="translate(-0.42 -59.842)" fill="#db0d15"/>
    <path id="Path_541" data-name="Path 541" d="M.549,102.768l1.085-.908a1.858,1.858,0,0,0,.637-1.142l.086-.53a.313.313,0,0,0-.491-.3l-1.085.909a1.875,1.875,0,0,0-.638,1.142l-.084.531a.311.311,0,0,0,.49.3" transform="translate(-0.035 -64.628)" fill="#db0d15"/>
    <path id="Path_542" data-name="Path 542" d="M.512,110.314l1.019-.982a1.876,1.876,0,0,0,.559-1.182l.047-.535a.314.314,0,0,0-.511-.272l-1.017.985a1.855,1.855,0,0,0-.558,1.181L0,110.045a.312.312,0,0,0,.51.269" transform="translate(-0.001 -69.45)" fill="#db0d15"/>
    <path id="Path_543" data-name="Path 543" d="M1.966,116.816A1.85,1.85,0,0,0,2.44,115.6l.013-.538a.314.314,0,0,0-.529-.233l-.947,1.051A1.85,1.85,0,0,0,.5,117.1l-.011.537a.312.312,0,0,0,.528.234Z" transform="translate(-0.318 -74.288)" fill="#db0d15"/>
    <path id="Path_544" data-name="Path 544" d="M2.881,124.27a1.876,1.876,0,0,0,.39-1.247l-.029-.539a.313.313,0,0,0-.544-.2L1.827,123.4a1.866,1.866,0,0,0-.389,1.247l.027.537a.313.313,0,0,0,.544.2Z" transform="translate(-0.929 -79.109)" fill="#db0d15"/>
    <path id="Path_545" data-name="Path 545" d="M4.595,130.392l-.065-.534a.311.311,0,0,0-.555-.156l-.791,1.172a1.861,1.861,0,0,0-.3,1.272l.064.532a.312.312,0,0,0,.555.158l.793-1.173a1.873,1.873,0,0,0,.3-1.27" transform="translate(-1.857 -83.896)" fill="#db0d15"/>
    <path id="Path_546" data-name="Path 546" d="M6.426,137.672l-.1-.527a.314.314,0,0,0-.567-.12l-.707,1.226a1.877,1.877,0,0,0-.21,1.29l.1.528a.314.314,0,0,0,.567.119l.706-1.225a1.865,1.865,0,0,0,.213-1.29" transform="translate(-3.111 -88.629)" fill="#db0d15"/>
    <path id="Path_547" data-name="Path 547" d="M8.749,144.821l-.137-.52a.313.313,0,0,0-.571-.079l-.62,1.273a1.862,1.862,0,0,0-.121,1.3l.137.519a.314.314,0,0,0,.574.079l.62-1.272a1.859,1.859,0,0,0,.119-1.3" transform="translate(-4.683 -93.277)" fill="#db0d15"/>
    <path id="Path_548" data-name="Path 548" d="M11.569,151.808,11.4,151.3a.313.313,0,0,0-.578-.038l-.529,1.311a1.879,1.879,0,0,0-.029,1.307l.175.507a.312.312,0,0,0,.576.039l.53-1.31a1.863,1.863,0,0,0,.029-1.308" transform="translate(-6.576 -97.822)" fill="#db0d15"/>
    <path id="Path_549" data-name="Path 549" d="M14.853,158.6l-.209-.5a.311.311,0,0,0-.577,0l-.438,1.345a1.87,1.87,0,0,0,.064,1.305l.208.5a.313.313,0,0,0,.578,0l.436-1.346a1.868,1.868,0,0,0-.063-1.3" transform="translate(-8.767 -102.24)" fill="#db0d15"/>
    <path id="Path_550" data-name="Path 550" d="M18.355,164.683a.313.313,0,0,0-.577.042l-.343,1.372a1.879,1.879,0,0,0,.154,1.3l.242.479a.313.313,0,0,0,.576-.041l.344-1.374a1.893,1.893,0,0,0-.152-1.3Z" transform="translate(-11.254 -106.513)" fill="#db0d15"/>
    <path id="Path_551" data-name="Path 551" d="M22.5,171a.314.314,0,0,0-.574.084l-.246,1.392a1.892,1.892,0,0,0,.245,1.285l.276.461a.314.314,0,0,0,.574-.083l.245-1.394a1.876,1.876,0,0,0-.242-1.283Z" transform="translate(-14.023 -110.616)" fill="#db0d15"/>
    <path id="Path_552" data-name="Path 552" d="M27.073,177.029a.313.313,0,0,0-.566.122l-.149,1.406a1.879,1.879,0,0,0,.334,1.263l.307.441a.313.313,0,0,0,.565-.121l.148-1.407a1.858,1.858,0,0,0-.332-1.264Z" transform="translate(-17.06 -114.532)" fill="#db0d15"/>
    <path id="Path_553" data-name="Path 553" d="M32.045,182.741a.312.312,0,0,0-.555.161l-.05,1.414a1.867,1.867,0,0,0,.42,1.236l.337.418a.312.312,0,0,0,.554-.16L32.8,184.4a1.864,1.864,0,0,0-.418-1.237Z" transform="translate(-20.355 -118.241)" fill="#db0d15"/>
    <path id="Path_554" data-name="Path 554" d="M37.663,188.5,37.3,188.1a.313.313,0,0,0-.543.2l.049,1.416a1.867,1.867,0,0,0,.506,1.2l.363.393a.313.313,0,0,0,.545-.2l-.048-1.413a1.885,1.885,0,0,0-.507-1.205" transform="translate(-23.796 -121.724)" fill="#db0d15"/>
    <path id="Path_555" data-name="Path 555" d="M43.212,193.457l-.393-.368a.312.312,0,0,0-.527.236l.149,1.407a1.854,1.854,0,0,0,.587,1.167l.394.369a.313.313,0,0,0,.527-.237l-.149-1.408a1.867,1.867,0,0,0-.588-1.167" transform="translate(-27.381 -124.962)" fill="#db0d15"/>
    <path id="Path_556" data-name="Path 556" d="M49.761,199.142a1.872,1.872,0,0,0-.665-1.124l-.417-.338a.313.313,0,0,0-.511.273l.246,1.393a1.865,1.865,0,0,0,.667,1.124l.419.339a.313.313,0,0,0,.509-.274Z" transform="translate(-31.184 -127.943)" fill="#db0d15"/>
    <path id="Path_557" data-name="Path 557" d="M56.024,203.235a1.859,1.859,0,0,0-.744-1.073l-.439-.31a.314.314,0,0,0-.491.308l.343,1.373a1.869,1.869,0,0,0,.744,1.075l.44.306a.312.312,0,0,0,.49-.306Z" transform="translate(-35.185 -130.653)" fill="#db0d15"/>
    <path id="Path_558" data-name="Path 558" d="M62.559,206.879a1.878,1.878,0,0,0-.817-1.018l-.46-.277a.311.311,0,0,0-.466.34l.437,1.346a1.869,1.869,0,0,0,.817,1.019l.459.28a.314.314,0,0,0,.469-.341Z" transform="translate(-39.367 -133.077)" fill="#db0d15"/>
    <path id="Path_559" data-name="Path 559" d="M69.333,210.06a1.855,1.855,0,0,0-.888-.961l-.477-.245a.313.313,0,0,0-.442.374l.53,1.31a1.86,1.86,0,0,0,.887.961l.479.246a.312.312,0,0,0,.44-.373Z" transform="translate(-43.707 -135.202)" fill="#db0d15"/>
    <path id="Path_560" data-name="Path 560" d="M76.314,212.759a1.879,1.879,0,0,0-.954-.9l-.494-.212a.311.311,0,0,0-.414.4l.619,1.272a1.865,1.865,0,0,0,.952.9l.494.212a.313.313,0,0,0,.415-.4Z" transform="translate(-48.187 -137.019)" fill="#db0d15"/>
    <path id="Path_561" data-name="Path 561" d="M83.463,214.966a1.863,1.863,0,0,0-1.012-.827l-.507-.175a.311.311,0,0,0-.385.43l.708,1.224a1.855,1.855,0,0,0,1.012.827l.505.176a.312.312,0,0,0,.386-.431Z" transform="translate(-52.781 -138.521)" fill="#db0d15"/>
    <path id="Path_562" data-name="Path 562" d="M90.748,216.669a1.872,1.872,0,0,0-1.07-.756l-.516-.14a.313.313,0,0,0-.355.458l.792,1.17a1.858,1.858,0,0,0,1.068.756l.519.141a.313.313,0,0,0,.354-.457Z" transform="translate(-57.468 -139.696)" fill="#db0d15"/>
    <path id="Path_563" data-name="Path 563" d="M98.14,217.862a1.87,1.87,0,0,0-1.119-.678l-.527-.1a.312.312,0,0,0-.32.481l.869,1.113a1.853,1.853,0,0,0,1.119.678l.526.105a.314.314,0,0,0,.322-.481Z" transform="translate(-62.23 -140.546)" fill="#db0d15"/>
    <path id="Path_564" data-name="Path 564" d="M105.592,218.536a1.862,1.862,0,0,0-1.163-.6l-.531-.065a.312.312,0,0,0-.288.5l.946,1.051a1.873,1.873,0,0,0,1.162.6l.532.067a.313.313,0,0,0,.289-.5Z" transform="translate(-67.037 -141.061)" fill="#db0d15"/>
    <path id="Path_565" data-name="Path 565" d="M113.078,218.685a1.871,1.871,0,0,0-1.2-.513l-.534-.031a.311.311,0,0,0-.253.519l1.017.985a1.877,1.877,0,0,0,1.2.515l.536.029a.312.312,0,0,0,.251-.519Z" transform="translate(-71.87 -141.237)" fill="#db0d15"/>
    <path id="Path_566" data-name="Path 566" d="M120.552,218.3a1.85,1.85,0,0,0-1.234-.432l-.537.008a.311.311,0,0,0-.214.534l1.083.912a1.864,1.864,0,0,0,1.234.428l.537-.007a.312.312,0,0,0,.216-.536Z" transform="translate(-76.703 -141.061)" fill="#db0d15"/>
    <path id="Path_567" data-name="Path 567" d="M127.985,217.332a1.85,1.85,0,0,0-1.26-.344l-.537.044a.314.314,0,0,0-.178.551l1.148.831a1.873,1.873,0,0,0,1.261.344l.536-.048a.311.311,0,0,0,.178-.548Z" transform="translate(-81.513 -140.486)" fill="#db0d15"/>
    <path id="Path_568" data-name="Path 568" d="M136.539,216.579l-1.2-.748a1.869,1.869,0,0,0-1.283-.256l-.532.083a.31.31,0,0,0-.137.558l1.2.753a1.881,1.881,0,0,0,1.284.255l.532-.082a.313.313,0,0,0,.138-.562" transform="translate(-86.277 -139.56)" fill="#db0d15"/>
    <path id="Path_569" data-name="Path 569" d="M143.826,214.468l-1.248-.665a1.886,1.886,0,0,0-1.3-.164l-.522.12a.313.313,0,0,0-.1.57l1.25.662a1.845,1.845,0,0,0,1.3.165l.524-.119a.312.312,0,0,0,.1-.569" transform="translate(-90.974 -138.29)" fill="#db0d15"/>
    <path id="Path_570" data-name="Path 570" d="M150.952,211.844l-1.292-.574a1.876,1.876,0,0,0-1.305-.074l-.515.155a.312.312,0,0,0-.057.574l1.294.577a1.875,1.875,0,0,0,1.3.074l.514-.155a.314.314,0,0,0,.057-.577" transform="translate(-95.575 -136.686)" fill="#db0d15"/>
    <path id="Path_571" data-name="Path 571" d="M157.888,208.717l-1.329-.482a1.873,1.873,0,0,0-1.308.016l-.5.191a.313.313,0,0,0-.016.577l1.33.486a1.866,1.866,0,0,0,1.306-.018l.5-.191a.314.314,0,0,0,.016-.579" transform="translate(-100.062 -134.752)" fill="#db0d15"/>
    <path id="Path_572" data-name="Path 572" d="M164.6,205.1l-1.361-.391a1.879,1.879,0,0,0-1.3.109l-.489.224a.315.315,0,0,0,.024.58l1.361.391a1.857,1.857,0,0,0,1.3-.109l.489-.225a.313.313,0,0,0-.021-.578" transform="translate(-104.412 -132.497)" fill="#db0d15"/>
    <path id="Path_573" data-name="Path 573" d="M171.047,201.019l-1.384-.294a1.869,1.869,0,0,0-1.294.2l-.47.258a.313.313,0,0,0,.062.576l1.384.294a1.873,1.873,0,0,0,1.291-.2l.473-.258a.314.314,0,0,0-.063-.576" transform="translate(-108.602 -129.935)" fill="#db0d15"/>
    <path id="Path_574" data-name="Path 574" d="M177.206,196.48l-1.4-.2a1.865,1.865,0,0,0-1.274.291l-.452.291a.311.311,0,0,0,.1.568l1.4.2a1.863,1.863,0,0,0,1.273-.29l.453-.292a.313.313,0,0,0-.1-.568" transform="translate(-112.615 -127.073)" fill="#db0d15"/>
    <path id="Path_575" data-name="Path 575" d="M183.049,191.523l-1.413-.1a1.86,1.86,0,0,0-1.25.375l-.429.322a.312.312,0,0,0,.141.561l1.411.1a1.869,1.869,0,0,0,1.25-.376l.432-.323a.313.313,0,0,0-.142-.561" transform="translate(-116.433 -123.937)" fill="#db0d15"/>
    <path id="Path_576" data-name="Path 576" d="M104.563,17.345l.845,2.644.858-2.663,2.776.012L106.775,15.7l.87-2.636-2.26,1.651-2.238-1.642.871,2.66-2.253,1.621Z" transform="translate(-65.888 -8.458)" fill="#db0d15"/>
    <path id="Path_577" data-name="Path 577" d="M72.644,20.937l-.205-2.769-1.456,2.39-2.7-.661,1.823,2.124-1.462,2.36L71.231,23.3l1.793,2.119-.227-2.79,2.57-1.051Z" transform="translate(-44.213 -11.763)" fill="#db0d15"/>
    <path id="Path_578" data-name="Path 578" d="M41.981,40.05l-1.249-2.48-.43,2.765-2.744.422,2.5,1.264-.447,2.74,1.974-1.984,2.468,1.272-1.277-2.49,1.972-1.954Z" transform="translate(-24.317 -24.325)" fill="#db0d15"/>
    <path id="Path_579" data-name="Path 579" d="M23.3,71.223l1.075-2.56L21.99,70.132l-2.1-1.812.66,2.72-2.374,1.439,2.791.213.635,2.7,1.064-2.588,2.767.231Z" transform="translate(-11.767 -44.234)" fill="#db0d15"/>
    <path id="Path_580" data-name="Path 580" d="M17.326,104.54l.013-2.776L15.7,104.031l-2.636-.87,1.651,2.26-1.642,2.239,2.66-.872,1.621,2.253-.007-2.8,2.644-.846Z" transform="translate(-8.458 -65.887)" fill="#db0d15"/>
    <path id="Path_581" data-name="Path 581" d="M25.424,138.146l-2.789.227-1.051-2.57-.646,2.723-2.769.205,2.39,1.456-.66,2.7,2.123-1.823,2.361,1.461L23.3,139.94Z" transform="translate(-11.764 -87.927)" fill="#db0d15"/>
    <path id="Path_582" data-name="Path 582" d="M40.338,170.675l.421,2.744,1.265-2.5,2.74.447L42.78,169.4l1.272-2.468-2.49,1.277-1.954-1.972L40.052,169l-2.479,1.249Z" transform="translate(-24.327 -107.628)" fill="#db0d15"/>
    <path id="Path_583" data-name="Path 583" d="M71.04,190.3l1.439,2.374.213-2.79,2.7-.636-2.588-1.064.231-2.766-1.812,2.133-2.56-1.074,1.468,2.383-1.812,2.1Z" transform="translate(-44.235 -120.048)" fill="#db0d15"/>
    <path id="Path_584" data-name="Path 584" d="M106.245,194.107l-.846-2.644-.858,2.663-2.776-.012,2.268,1.639-.87,2.636,2.259-1.651,2.239,1.642-.871-2.659,2.253-1.622Z" transform="translate(-65.888 -123.964)" fill="#db0d15"/>
    <path id="Path_585" data-name="Path 585" d="M138.527,189.912l.205,2.768,1.456-2.39,2.7.66-1.823-2.123,1.462-2.36-2.583,1.077-1.793-2.119.227,2.79-2.57,1.05Z" transform="translate(-87.928 -120.055)" fill="#db0d15"/>
    <path id="Path_586" data-name="Path 586" d="M169,170.916l1.249,2.48.43-2.765,2.744-.422-2.5-1.264.447-2.74-1.974,1.984-2.468-1.272,1.277,2.49-1.972,1.954Z" transform="translate(-107.629 -107.61)" fill="#db0d15"/>
    <path id="Path_587" data-name="Path 587" d="M189.882,138.491l-.635-2.7-1.065,2.588-2.767-.231,2.133,1.812-1.075,2.559,2.383-1.468,2.1,1.813-.661-2.719,2.374-1.44Z" transform="translate(-120.049 -87.917)" fill="#db0d15"/>
    <path id="Path_588" data-name="Path 588" d="M196.739,105.384l1.642-2.239-2.66.872-1.621-2.253.007,2.8-2.644.845,2.664.858-.013,2.776,1.639-2.269,2.636.87Z" transform="translate(-123.964 -65.888)" fill="#db0d15"/>
    <path id="Path_589" data-name="Path 589" d="M185.427,73.023l2.789-.227,1.051,2.57.646-2.723,2.768-.205-2.39-1.456.66-2.7-2.124,1.823-2.36-1.461,1.078,2.583Z" transform="translate(-120.056 -44.212)" fill="#db0d15"/>
    <path id="Path_590" data-name="Path 590" d="M170.631,40.3l-.421-2.744-1.265,2.5-2.74-.447,1.984,1.974-1.272,2.468,2.49-1.277,1.954,1.972-.445-2.763,2.479-1.249Z" transform="translate(-107.611 -24.316)" fill="#db0d15"/>
    <path id="Path_591" data-name="Path 591" d="M140.143,20.547,138.7,18.173l-.213,2.791-2.7.635,2.588,1.064-.23,2.767,1.812-2.133,2.56,1.074-1.469-2.382,1.813-2.1Z" transform="translate(-87.917 -11.766)" fill="#db0d15"/>
    <path id="Path_592" data-name="Path 592" d="M95.845,77.675a18.816,18.816,0,1,0-33.3,12.011,64.621,64.621,0,0,1,14.592,2.5A46.051,46.051,0,0,1,89.882,87c.013-1.092-.008-3.7-.007-3.7l-1.315,0A1.5,1.5,0,0,1,87.5,80.743a1.473,1.473,0,0,1,.539-.347c-.015-.014-.029-.029-.043-.043a1.216,1.216,0,0,1,.858-2.073h.076c0-.015,0-.03,0-.046a1.188,1.188,0,0,1,.358-.864,1.218,1.218,0,0,1,1.715,0,1.185,1.185,0,0,1,.357.864c0,.016,0,.031,0,.046h.078a1.213,1.213,0,0,1,.856,2.073l-.038.043a1.5,1.5,0,0,1-.519,2.9l-1.351.025c.024.507-.026,2.538-.028,3.57,1.2-.271,2.341-.475,3.4-.617a18.73,18.73,0,0,0,2.083-8.6M69.22,72.052l.385-.942a.381.381,0,1,1,.7.288l-.385.942a.381.381,0,0,1-.7-.288m-3.3-1.131a.381.381,0,0,1,.5.2l.394.937a.38.38,0,1,1-.7.295l-.394-.938a.38.38,0,0,1,.2-.5m-2.945,2.973a.38.38,0,0,1,.5-.208l.942.385a.381.381,0,1,1-.288.7l-.942-.385a.381.381,0,0,1-.208-.5m1.661,3.787a.379.379,0,0,1-.2.207l-.938.394a.381.381,0,0,1-.295-.7l.938-.393a.38.38,0,0,1,.5.495m2.213,2.192-.385.942a.38.38,0,0,1-.7-.288l.384-.942a.381.381,0,1,1,.7.288m-.87-4.745a2.169,2.169,0,0,0,1.189,2.823.38.38,0,1,1-.288.7,2.923,2.923,0,1,1,3.791-3.869.38.38,0,0,1-.7.3,2.169,2.169,0,0,0-3.994.04m6.676,11.944L68.8,89.11V76.1L72.651,77.5Zm.424-12.934a.378.378,0,0,1-.2.207l-.938.394a.381.381,0,1,1-.3-.7l.938-.394a.38.38,0,0,1,.5.495m5.4,13.208L74.14,89.514V74.582l4.335,1.576Zm-1.1-18.729a3.309,3.309,0,0,1-1.471.42,1.653,1.653,0,0,1-.172.006,3.392,3.392,0,0,1-1.414-6.474,2.846,2.846,0,0,1,.4-.157A3.393,3.393,0,0,1,78.6,63.839a2.715,2.715,0,0,0-3.145-.657,2.5,2.5,0,0,0-.36.2,2.72,2.72,0,0,0-1.146,1.592,2.727,2.727,0,0,0,.457,2.3,2.72,2.72,0,0,0,2.172,1.086h0a2.6,2.6,0,0,0,.52-.05,2.706,2.706,0,0,0,1.5-.851,3.376,3.376,0,0,1-1.224,1.154m1.042-2.967,1.17-.382V64.04l.313.428.413.567,1.17-.379-.723,1,.191.263.532.735-1.17-.382-.726,1V66.033ZM85.85,85.584,80.157,88.43V73l5.693,2.07Z" transform="translate(-37.69 -38.109)" fill="#db0d15"/>
    <rect id="Rectangle_171" data-name="Rectangle 171" width="0.585" height="2.905" transform="translate(39.046 16.667)" fill="#db0d15"/>
    <rect id="Rectangle_172" data-name="Rectangle 172" width="0.584" height="2.905" transform="translate(37.066 16.768) rotate(-5.006)" fill="#db0d15"/>
    <rect id="Rectangle_173" data-name="Rectangle 173" width="0.584" height="2.905" transform="matrix(0.985, -0.174, 0.174, 0.985, 35.102, 17.042)" fill="#db0d15"/>
    <rect id="Rectangle_174" data-name="Rectangle 174" width="0.584" height="2.905" transform="translate(33.169 17.486) rotate(-14.994)" fill="#db0d15"/>
    <rect id="Rectangle_175" data-name="Rectangle 175" width="0.584" height="2.905" transform="translate(31.281 18.097) rotate(-20.005)" fill="#db0d15"/>
    <rect id="Rectangle_176" data-name="Rectangle 176" width="0.584" height="2.905" transform="translate(29.455 18.87) rotate(-25.004)" fill="#db0d15"/>
    <rect id="Rectangle_177" data-name="Rectangle 177" width="0.584" height="2.905" transform="translate(27.703 19.799) rotate(-29.997)" fill="#db0d15"/>
    <rect id="Rectangle_178" data-name="Rectangle 178" width="0.584" height="2.905" transform="translate(26.038 20.877) rotate(-35.003)" fill="#db0d15"/>
    <rect id="Rectangle_179" data-name="Rectangle 179" width="0.584" height="2.905" transform="matrix(0.766, -0.643, 0.643, 0.766, 24.473, 22.097)" fill="#db0d15"/>
    <rect id="Rectangle_180" data-name="Rectangle 180" width="0.584" height="2.905" transform="translate(23.022 23.448) rotate(-45)" fill="#db0d15"/>
    <rect id="Rectangle_181" data-name="Rectangle 181" width="0.584" height="2.905" transform="translate(21.693 24.92) rotate(-50.002)" fill="#db0d15"/>
    <rect id="Rectangle_182" data-name="Rectangle 182" width="0.584" height="2.905" transform="matrix(0.574, -0.819, 0.819, 0.574, 20.497, 26.503)" fill="#db0d15"/>
    <rect id="Rectangle_183" data-name="Rectangle 183" width="0.584" height="2.905" transform="translate(19.444 28.183) rotate(-59.996)" fill="#db0d15"/>
    <rect id="Rectangle_184" data-name="Rectangle 184" width="0.584" height="2.905" transform="matrix(0.423, -0.906, 0.906, 0.423, 18.542, 29.95)" fill="#db0d15"/>
    <rect id="Rectangle_185" data-name="Rectangle 185" width="0.584" height="2.905" transform="translate(17.797 31.788) rotate(-70.001)" fill="#db0d15"/>
    <rect id="Rectangle_186" data-name="Rectangle 186" width="0.584" height="2.905" transform="matrix(0.259, -0.966, 0.966, 0.259, 17.215, 33.684)" fill="#db0d15"/>
    <rect id="Rectangle_187" data-name="Rectangle 187" width="0.584" height="2.905" transform="translate(16.8 35.623) rotate(-80.007)" fill="#db0d15"/>
    <rect id="Rectangle_188" data-name="Rectangle 188" width="0.584" height="2.905" transform="matrix(0.087, -0.996, 0.996, 0.087, 16.556, 37.591)" fill="#db0d15"/>
    <rect id="Rectangle_189" data-name="Rectangle 189" width="2.905" height="0.584" transform="translate(16.485 38.99)" fill="#db0d15"/>
    <rect id="Rectangle_190" data-name="Rectangle 190" width="2.905" height="0.584" transform="translate(16.535 40.973) rotate(-5.006)" fill="#db0d15"/>
    <rect id="Rectangle_191" data-name="Rectangle 191" width="2.905" height="0.584" transform="translate(16.759 42.944) rotate(-10)" fill="#db0d15"/>
    <rect id="Rectangle_192" data-name="Rectangle 192" width="2.905" height="0.584" transform="translate(17.153 44.888) rotate(-14.994)" fill="#db0d15"/>
    <rect id="Rectangle_193" data-name="Rectangle 193" width="2.905" height="0.584" transform="translate(17.715 46.79) rotate(-19.999)" fill="#db0d15"/>
    <rect id="Rectangle_194" data-name="Rectangle 194" width="2.905" height="0.584" transform="matrix(0.906, -0.423, 0.423, 0.906, 18.441, 48.637)" fill="#db0d15"/>
    <rect id="Rectangle_195" data-name="Rectangle 195" width="2.905" height="0.584" transform="matrix(0.866, -0.5, 0.5, 0.866, 19.325, 50.412)" fill="#db0d15"/>
    <rect id="Rectangle_196" data-name="Rectangle 196" width="0.584" height="2.905" transform="translate(57.712 46.57) rotate(-70.002)" fill="#db0d15"/>
    <rect id="Rectangle_197" data-name="Rectangle 197" width="0.584" height="2.905" transform="matrix(0.259, -0.966, 0.966, 0.259, 58.267, 44.931)" fill="#db0d15"/>
    <rect id="Rectangle_198" data-name="Rectangle 198" width="0.584" height="2.905" transform="translate(58.676 43.25) rotate(-80.005)" fill="#db0d15"/>
    <rect id="Rectangle_199" data-name="Rectangle 199" width="0.584" height="2.905" transform="matrix(0.087, -0.996, 0.996, 0.087, 58.937, 41.539)" fill="#db0d15"/>
    <rect id="Rectangle_200" data-name="Rectangle 200" width="2.905" height="0.584" transform="translate(59.049 39.229)" fill="#db0d15"/>
    <rect id="Rectangle_201" data-name="Rectangle 201" width="2.905" height="0.584" transform="matrix(0.996, -0.087, 0.087, 0.996, 58.958, 37.501)" fill="#db0d15"/>
    <rect id="Rectangle_202" data-name="Rectangle 202" width="2.905" height="0.584" transform="translate(58.718 35.788) rotate(-9.993)" fill="#db0d15"/>
    <rect id="Rectangle_203" data-name="Rectangle 203" width="2.905" height="0.584" transform="translate(58.329 34.102) rotate(-14.996)" fill="#db0d15"/>
    <rect id="Rectangle_204" data-name="Rectangle 204" width="2.905" height="0.584" transform="translate(57.794 32.457) rotate(-19.999)" fill="#db0d15"/>
    <rect id="Rectangle_205" data-name="Rectangle 205" width="2.905" height="0.584" transform="translate(57.118 30.865) rotate(-25.004)" fill="#db0d15"/>
    <rect id="Rectangle_206" data-name="Rectangle 206" width="2.905" height="0.584" transform="translate(56.306 29.337) rotate(-30.004)" fill="#db0d15"/>
    <rect id="Rectangle_207" data-name="Rectangle 207" width="2.905" height="0.584" transform="matrix(0.819, -0.574, 0.574, 0.819, 55.364, 27.886)" fill="#db0d15"/>
    <rect id="Rectangle_208" data-name="Rectangle 208" width="2.905" height="0.584" transform="matrix(0.766, -0.643, 0.643, 0.766, 54.299, 26.523)" fill="#db0d15"/>
    <rect id="Rectangle_209" data-name="Rectangle 209" width="2.905" height="0.584" transform="translate(53.119 25.258) rotate(-45)" fill="#db0d15"/>
    <rect id="Rectangle_210" data-name="Rectangle 210" width="2.905" height="0.584" transform="matrix(0.643, -0.766, 0.766, 0.643, 51.833, 24.1)" fill="#db0d15"/>
    <rect id="Rectangle_211" data-name="Rectangle 211" width="2.905" height="0.584" transform="translate(50.452 23.059) rotate(-55.002)" fill="#db0d15"/>
    <rect id="Rectangle_212" data-name="Rectangle 212" width="2.905" height="0.584" transform="translate(48.985 22.142) rotate(-60.003)" fill="#db0d15"/>
    <rect id="Rectangle_213" data-name="Rectangle 213" width="2.905" height="0.584" transform="translate(47.444 21.357) rotate(-65.044)" fill="#db0d15"/>
    <rect id="Rectangle_214" data-name="Rectangle 214" width="2.905" height="0.584" transform="translate(45.839 20.709) rotate(-70.003)" fill="#db0d15"/>
    <rect id="Rectangle_215" data-name="Rectangle 215" width="2.905" height="0.584" transform="translate(44.186 20.203) rotate(-75.024)" fill="#db0d15"/>
    <rect id="Rectangle_216" data-name="Rectangle 216" width="2.905" height="0.584" transform="matrix(0.173, -0.985, 0.985, 0.173, 42.494, 19.843)" fill="#db0d15"/>
    <rect id="Rectangle_217" data-name="Rectangle 217" width="2.905" height="0.584" transform="translate(40.775 19.632) rotate(-84.978)" fill="#db0d15"/>
    <path id="Path_593" data-name="Path 593" d="M116.081,147.683l3.172,1.285s3.846-3.808,18.451-7.121c0,0-11.82,0-21.623,5.835" transform="translate(-75.157 -91.84)" fill="#db0d15"/>
    <path id="Path_594" data-name="Path 594" d="M51.975,152.553c14.619,2.384,22.07,5.892,22.07,5.892l2.913-2.113c-10.313-4.879-24.983-3.779-24.983-3.779" transform="translate(-33.652 -98.703)" fill="#db0d15"/>
    <path id="Path_595" data-name="Path 595" d="M62.313,89.415a27.1,27.1,0,1,1,27.1-27.1,27.133,27.133,0,0,1-27.1,27.1m0-53.6a26.5,26.5,0,1,0,26.5,26.5,26.526,26.526,0,0,0-26.5-26.5" transform="translate(-22.797 -22.797)" fill="#db0d15"/>
    <path id="Path_596" data-name="Path 596" d="M254.63,42.611h-2.955V41.545h7.193v1.066H255.9v8.648H254.63Z" transform="translate(-162.949 -26.898)" fill="#db0d15"/>
    <path id="Path_597" data-name="Path 597" d="M276.37,37.626v5.751c0,2.177.966,3.1,2.263,3.1,1.442,0,2.364-.952,2.364-3.1V37.626h1.268v5.665c0,2.984-1.571,4.209-3.676,4.209-1.989,0-3.488-1.139-3.488-4.152V37.626Zm.3-1.413a.723.723,0,0,1,.721-.721.728.728,0,1,1-.721.721m2.681,0a.71.71,0,0,1,.706-.721.728.728,0,1,1-.706.721" transform="translate(-178.117 -22.98)" fill="#db0d15"/>
    <path id="Path_598" data-name="Path 598" d="M301.594,41.541a13.061,13.061,0,0,1,2.407-.2,3.973,3.973,0,0,1,2.81.793,2.421,2.421,0,0,1,.764,1.845,2.551,2.551,0,0,1-1.831,2.479V46.5a2.422,2.422,0,0,1,1.427,1.96,15.468,15.468,0,0,0,.749,2.667h-1.3a12.576,12.576,0,0,1-.649-2.321c-.288-1.34-.807-1.845-1.946-1.888h-1.182v4.209h-1.254Zm1.254,4.425h1.283c1.34,0,2.191-.735,2.191-1.845,0-1.254-.908-1.8-2.234-1.816a5.149,5.149,0,0,0-1.239.115Z" transform="translate(-195.269 -26.765)" fill="#db0d15"/>
    <path id="Path_599" data-name="Path 599" d="M323.589,41.544h1.254v4.685h.043c.259-.375.519-.721.764-1.038l2.969-3.647h1.557l-3.517,4.122,3.791,5.593h-1.485l-3.2-4.771-.923,1.067v3.7h-1.254Z" transform="translate(-209.51 -26.898)" fill="#db0d15"/>
    <path id="Path_600" data-name="Path 600" d="M345.543,36.214a.732.732,0,0,1,.721-.721.717.717,0,0,1,.692.721.707.707,0,1,1-1.413,0m1.326,11.128h-1.254V37.626h1.254Z" transform="translate(-223.724 -22.98)" fill="#db0d15"/>
    <path id="Path_601" data-name="Path 601" d="M355.727,51.259V47.137l-3.07-5.593h1.427l1.369,2.681c.375.735.663,1.326.966,2h.029c.274-.635.605-1.269.98-2l1.4-2.681h1.427L357,47.122v4.137Z" transform="translate(-228.33 -26.898)" fill="#db0d15"/>
    <path id="Path_602" data-name="Path 602" d="M382.095,46.7h-3.776v3.5h4.209v1.052h-5.463V41.543h5.246V42.6h-3.992v3.071h3.776Z" transform="translate(-244.133 -26.897)" fill="#db0d15"/>
    <path id="Path_603" data-name="Path 603" d="M411.575,50.651a6.226,6.226,0,0,1-2.566.461,4.54,4.54,0,0,1-4.8-4.915,4.835,4.835,0,0,1,5.073-5.1,5.207,5.207,0,0,1,2.306.433l-.3,1.023a4.57,4.57,0,0,0-1.96-.4c-2.277,0-3.791,1.456-3.791,4.007,0,2.378,1.369,3.906,3.733,3.906a5.016,5.016,0,0,0,2.047-.4Z" transform="translate(-261.708 -26.607)" fill="#db0d15"/>
    <path id="Path_604" data-name="Path 604" d="M430.784,41.544V47.3c0,2.176.965,3.1,2.263,3.1,1.441,0,2.364-.951,2.364-3.1V41.544h1.268v5.665c0,2.984-1.571,4.209-3.676,4.209-1.989,0-3.488-1.139-3.488-4.152V41.544Z" transform="translate(-278.093 -26.898)" fill="#db0d15"/>
    <path id="Path_605" data-name="Path 605" d="M463.719,46.993c-.072-1.355-.159-2.984-.144-4.195h-.043c-.332,1.139-.735,2.349-1.225,3.69L460.591,51.2h-.952l-1.571-4.627c-.462-1.369-.851-2.624-1.124-3.777h-.029c-.029,1.211-.1,2.84-.188,4.3l-.259,4.166h-1.2l.678-9.715h1.6l1.658,4.7c.4,1.2.735,2.263.98,3.272h.043c.245-.98.591-2.047,1.023-3.272l1.73-4.7h1.6l.6,9.715h-1.225Z" transform="translate(-294.769 -26.898)" fill="#db0d15"/>
    <path id="Path_606" data-name="Path 606" d="M490.132,41.544v4.065h4.7V41.544H496.1v9.715h-1.268V46.7h-4.7v4.555h-1.254V41.544Z" transform="translate(-316.527 -26.898)" fill="#db0d15"/>
    <path id="Path_607" data-name="Path 607" d="M516.76,41.544V47.3c0,2.176.965,3.1,2.263,3.1,1.441,0,2.364-.951,2.364-3.1V41.544h1.268v5.665c0,2.984-1.571,4.209-3.676,4.209-1.989,0-3.488-1.139-3.488-4.152V41.544Z" transform="translate(-333.759 -26.898)" fill="#db0d15"/>
    <path id="Path_608" data-name="Path 608" d="M541.984,41.541a13.061,13.061,0,0,1,2.407-.2,3.974,3.974,0,0,1,2.81.793,2.421,2.421,0,0,1,.764,1.845,2.551,2.551,0,0,1-1.831,2.479V46.5a2.422,2.422,0,0,1,1.427,1.96,15.447,15.447,0,0,0,.749,2.667h-1.3a12.582,12.582,0,0,1-.649-2.321c-.288-1.34-.807-1.845-1.946-1.888h-1.182v4.209h-1.254Zm1.254,4.425h1.283c1.34,0,2.191-.735,2.191-1.845,0-1.254-.908-1.8-2.234-1.816a5.148,5.148,0,0,0-1.24.115Z" transform="translate(-350.911 -26.765)" fill="#db0d15"/>
    <path id="Path_609" data-name="Path 609" d="M563.775,36.214a.732.732,0,0,1,.721-.721.717.717,0,0,1,.692.721.707.707,0,1,1-1.413,0M565.1,47.341h-1.254V37.626H565.1Z" transform="translate(-365.02 -22.98)" fill="#db0d15"/>
    <path id="Path_610" data-name="Path 610" d="M573.958,51.259V47.137l-3.071-5.593h1.427l1.369,2.681c.375.735.663,1.326.966,2h.029c.274-.635.6-1.269.98-2l1.4-2.681h1.427l-3.257,5.578v4.137Z" transform="translate(-369.625 -26.898)" fill="#db0d15"/>
    <path id="Path_611" data-name="Path 611" d="M600.327,46.7H596.55v3.5h4.209v1.052H595.3V41.543h5.246V42.6H596.55v3.071h3.777Z" transform="translate(-385.429 -26.897)" fill="#db0d15"/>
    <path id="Path_612" data-name="Path 612" d="M615.87,42.611h-2.955V41.545h7.193v1.066h-2.969v8.648H615.87Z" transform="translate(-396.836 -26.898)" fill="#db0d15"/>
    <path id="Path_613" data-name="Path 613" d="M636.178,36.214a.732.732,0,0,1,.721-.721.717.717,0,0,1,.692.721.707.707,0,1,1-1.413,0M637.5,47.341H636.25V37.626H637.5Z" transform="translate(-411.898 -22.98)" fill="#db0d15"/>
    <path id="Path_614" data-name="Path 614" d="M260.729,95.116a6.05,6.05,0,0,1-2.32.418l-.245.49a1.211,1.211,0,0,1,1.052,1.182c0,.995-.894,1.326-1.716,1.326a2.663,2.663,0,0,1-1.24-.274l.289-.894a1.908,1.908,0,0,0,.807.2c.288,0,.519-.1.519-.346,0-.3-.332-.461-1.139-.548l.548-1.2a4.509,4.509,0,0,1-4.137-4.8,4.953,4.953,0,0,1,5.3-5.16,5.734,5.734,0,0,1,2.393.432l-.447,1.744a4.729,4.729,0,0,0-1.845-.361,3.194,3.194,0,0,0,.014,6.386,5.473,5.473,0,0,0,1.83-.318Z" transform="translate(-163.902 -55.369)" fill="#db0d15"/>
    <path id="Path_615" data-name="Path 615" d="M284.52,91.573h-3.575v2.306h3.993v1.8h-6.2V85.966h6v1.8h-3.791v2.018h3.575Z" transform="translate(-180.472 -55.659)" fill="#db0d15"/>
    <path id="Path_616" data-name="Path 616" d="M301.64,95.681l-3.113-9.715h2.407l1.182,4.108c.331,1.153.634,2.263.865,3.474h.043c.245-1.167.548-2.32.879-3.431l1.24-4.151h2.335l-3.272,9.715Z" transform="translate(-193.283 -55.659)" fill="#db0d15"/>
    <path id="Path_617" data-name="Path 617" d="M326.858,85.964a19.263,19.263,0,0,1,2.926-.2,4.96,4.96,0,0,1,3.142.764,2.466,2.466,0,0,1,.894,2.032,2.577,2.577,0,0,1-1.715,2.393v.043a2.452,2.452,0,0,1,1.3,1.817c.3,1.1.6,2.363.793,2.738h-2.249a12.123,12.123,0,0,1-.677-2.263c-.26-1.211-.678-1.542-1.571-1.556h-.663v3.819h-2.177Zm2.177,4.18h.865c1.1,0,1.744-.547,1.744-1.4,0-.894-.605-1.341-1.614-1.355a5.471,5.471,0,0,0-.995.072Z" transform="translate(-211.626 -55.527)" fill="#db0d15"/>
    <path id="Path_618" data-name="Path 618" d="M356.882,91.573h-3.575v2.306H357.3v1.8h-6.2V85.966h6v1.8h-3.791v2.018h3.575Z" transform="translate(-227.323 -55.659)" fill="#db0d15"/>
    <path id="Path_619" data-name="Path 619" d="M369.99,110.606a24.359,24.359,0,0,0,1.038-4.093l2.234-.145a19.941,19.941,0,0,1-1.816,4.108Z" transform="translate(-239.553 -68.869)" fill="#db0d15"/>
    <path id="Path_620" data-name="Path 620" d="M396.226,87.78a4.619,4.619,0,0,0-2.032-.461c-.951,0-1.412.432-1.412.937,0,.62.547.893,1.8,1.369,1.715.634,2.522,1.528,2.522,2.9a2.959,2.959,0,0,1-2.8,2.912l-.274.591a1.225,1.225,0,0,1,1.052,1.182c0,.995-.894,1.327-1.715,1.327a2.617,2.617,0,0,1-1.24-.274l.288-.894a1.808,1.808,0,0,0,.807.2c.289,0,.52-.1.52-.346,0-.3-.346-.461-1.139-.548l.519-1.139a6.271,6.271,0,0,1-2.695-.591l.447-1.816a5.609,5.609,0,0,0,2.436.6c1.009,0,1.542-.418,1.542-1.052,0-.606-.461-.952-1.629-1.37-1.614-.562-2.666-1.456-2.666-2.868,0-1.658,1.384-2.926,3.676-2.926a5.952,5.952,0,0,1,2.479.49Z" transform="translate(-252.788 -55.369)" fill="#db0d15"/>
    <path id="Path_621" data-name="Path 621" d="M419.35,91.573h-3.575v2.306h3.993v1.8h-6.2V85.966h6v1.8h-3.791v2.018h3.575Z" transform="translate(-267.769 -55.659)" fill="#db0d15"/>
    <path id="Path_622" data-name="Path 622" d="M437.608,85.966V89.7h3.618V85.966h2.191v9.715h-2.191V91.616h-3.618v4.065H435.4V85.966Z" transform="translate(-281.904 -55.659)" fill="#db0d15"/>
    <path id="Path_623" data-name="Path 623" d="M465.775,91.022H463.57V81.307h2.205Zm-2.09-11.257a.991.991,0,0,1,1.009-.995.964.964,0,0,1,.966.995.978.978,0,0,1-.966.98,1,1,0,0,1-1.009-.98" transform="translate(-300.142 -51)" fill="#db0d15"/>
    <path id="Path_624" data-name="Path 624" d="M475.222,85.964a19.263,19.263,0,0,1,2.926-.2,4.96,4.96,0,0,1,3.142.764,2.466,2.466,0,0,1,.894,2.032,2.577,2.577,0,0,1-1.715,2.393v.043a2.451,2.451,0,0,1,1.3,1.817c.3,1.1.605,2.363.793,2.738H480.31a12.118,12.118,0,0,1-.677-2.263c-.259-1.211-.678-1.542-1.571-1.556H477.4v3.819h-2.177Zm2.177,4.18h.865c1.095,0,1.744-.547,1.744-1.4,0-.894-.605-1.341-1.615-1.355a5.468,5.468,0,0,0-.994.072Z" transform="translate(-307.686 -55.527)" fill="#db0d15"/>
    <path id="Path_625" data-name="Path 625" d="M505.616,95.116a6.258,6.258,0,0,1-2.493.418c-3.358,0-5.088-2.09-5.088-4.858a4.953,4.953,0,0,1,5.3-5.16,5.733,5.733,0,0,1,2.393.432l-.447,1.744a4.732,4.732,0,0,0-1.845-.361,3.194,3.194,0,0,0,.014,6.386,5.477,5.477,0,0,0,1.831-.318Z" transform="translate(-322.455 -55.369)" fill="#db0d15"/>
    <path id="Path_626" data-name="Path 626" d="M525.832,91.022h-2.205V81.307h2.205Zm-2.09-11.257a.991.991,0,0,1,1.009-.995.964.964,0,0,1,.965.995.978.978,0,0,1-.965.98,1,1,0,0,1-1.009-.98" transform="translate(-339.026 -51)" fill="#db0d15"/>
    <path id="Path_627" data-name="Path 627" d="M535.278,85.966h2.205v7.87h3.863v1.845h-6.068Z" transform="translate(-346.569 -55.659)" fill="#db0d15"/>
    <path id="Path_628" data-name="Path 628" d="M558.373,91.022h-2.205V81.307h2.205Zm-2.09-11.257a.991.991,0,0,1,1.009-.995.964.964,0,0,1,.966.995.978.978,0,0,1-.966.98,1,1,0,0,1-1.009-.98" transform="translate(-360.095 -51)" fill="#db0d15"/>
    <path id="Path_629" data-name="Path 629" d="M567.82,85.966H570v4.3h.043c.216-.375.447-.721.663-1.066l2.206-3.229h2.7L572.389,90.1l3.387,5.578h-2.565l-2.379-4.194L570,92.51v3.171H567.82Z" transform="translate(-367.639 -55.659)" fill="#db0d15"/>
    <path id="Path_630" data-name="Path 630" d="M600.451,95.681l-3.113-9.715h2.407l1.182,4.108c.331,1.153.634,2.263.864,3.474h.043c.245-1.167.548-2.32.879-3.431l1.24-4.151h2.335l-3.272,9.715Z" transform="translate(-386.751 -55.659)" fill="#db0d15"/>
    <path id="Path_631" data-name="Path 631" d="M631.449,91.573h-3.575v2.306h3.992v1.8h-6.2V85.966h6v1.8h-3.791v2.018h3.575Z" transform="translate(-405.093 -55.659)" fill="#db0d15"/>
    <path id="Path_632" data-name="Path 632" d="M256.62,135.444h-2.206v-9.715h2.206Zm-2.09-11.257a.991.991,0,0,1,1.009-.995.964.964,0,0,1,.966.995.978.978,0,0,1-.966.98,1,1,0,0,1-1.009-.98" transform="translate(-164.723 -79.762)" fill="#db0d15"/>
    <path id="Path_633" data-name="Path 633" d="M266.066,130.388h2.177v4.3h.043c.216-.375.447-.721.663-1.066l2.206-3.229h2.695l-3.214,4.137,3.387,5.578h-2.566l-2.378-4.194-.836,1.023V140.1h-2.177Z" transform="translate(-172.266 -84.421)" fill="#db0d15"/>
    <path id="Path_634" data-name="Path 634" d="M291.169,130.388h2.206v7.87h3.863V140.1h-6.068Z" transform="translate(-188.519 -84.421)" fill="#db0d15"/>
    <path id="Path_635" data-name="Path 635" d="M314.264,135.444h-2.206v-9.715h2.206Zm-2.09-11.257a.991.991,0,0,1,1.009-.995.964.964,0,0,1,.966.995.978.978,0,0,1-.966.98,1,1,0,0,1-1.009-.98" transform="translate(-202.045 -79.762)" fill="#db0d15"/>
    <path id="Path_636" data-name="Path 636" d="M331.529,136.385c-.043-1.167-.086-2.58-.086-3.993H331.4c-.3,1.24-.706,2.623-1.081,3.762l-1.182,3.791h-1.715l-1.038-3.762c-.317-1.139-.648-2.522-.879-3.791h-.029c-.058,1.312-.1,2.811-.173,4.021l-.173,3.69H323.1l.62-9.715h2.926l.951,3.243c.3,1.124.606,2.335.822,3.474h.043c.274-1.125.6-2.408.923-3.488l1.038-3.229h2.868l.534,9.715h-2.148Z" transform="translate(-209.191 -84.421)" fill="#db0d15"/>
    <path id="Path_637" data-name="Path 637" d="M366.555,130.386a19.611,19.611,0,0,1,2.969-.2,6.25,6.25,0,0,1,3.978,1.038,4.3,4.3,0,0,1,1.643,3.661,4.928,4.928,0,0,1-1.614,3.935,6.975,6.975,0,0,1-4.483,1.254,18.991,18.991,0,0,1-2.494-.144Zm2.206,7.928a4.033,4.033,0,0,0,.764.043c1.989.014,3.286-1.081,3.286-3.4a2.786,2.786,0,0,0-3.056-3.084,4.562,4.562,0,0,0-.994.086Z" transform="translate(-237.329 -84.289)" fill="#db0d15"/>
    <path id="Path_638" data-name="Path 638" d="M400.79,136h-3.575V138.3h3.993v1.8h-6.2v-9.715h6v1.8h-3.791v2.018h3.575Z" transform="translate(-255.752 -84.421)" fill="#db0d15"/>
    <path id="Path_639" data-name="Path 639" d="M424.135,135.236a10.871,10.871,0,0,1-3.243.548,5.413,5.413,0,0,1-3.95-1.312,4.7,4.7,0,0,1-1.369-3.531c.015-3.229,2.364-5.073,5.55-5.073a6.686,6.686,0,0,1,2.7.476l-.461,1.759a5.372,5.372,0,0,0-2.263-.418,3.165,3.165,0,1,0,.923,6.184v-2.033h-1.5v-1.715h3.618Zm-4.454-11.675a.758.758,0,0,0,.85.663.809.809,0,0,0,.908-.663h1.124a1.772,1.772,0,0,1-2.018,1.816c-1.427,0-2-.764-2.018-1.816Z" transform="translate(-269.066 -80)" fill="#db0d15"/>
    <path id="Path_640" data-name="Path 640" d="M446.93,135.444h-2.206v-9.715h2.206Zm-2.09-11.257a.991.991,0,0,1,1.009-.995.964.964,0,0,1,.966.995.978.978,0,0,1-.966.98,1,1,0,0,1-1.009-.98" transform="translate(-287.94 -79.762)" fill="#db0d15"/>
    <path id="Path_641" data-name="Path 641" d="M461.107,132.2a4.619,4.619,0,0,0-2.032-.461c-.951,0-1.412.432-1.412.937,0,.62.548.893,1.8,1.369,1.715.634,2.522,1.528,2.522,2.9a2.959,2.959,0,0,1-2.8,2.912l-.274.59a1.225,1.225,0,0,1,1.052,1.182c0,.995-.894,1.327-1.715,1.327a2.616,2.616,0,0,1-1.24-.274l.288-.894a1.808,1.808,0,0,0,.807.2c.289,0,.52-.1.52-.346,0-.3-.346-.461-1.139-.547l.519-1.139a6.271,6.271,0,0,1-2.695-.591l.447-1.816a5.609,5.609,0,0,0,2.436.6c1.009,0,1.542-.418,1.542-1.052,0-.606-.461-.952-1.629-1.37-1.614-.562-2.666-1.456-2.666-2.868,0-1.658,1.384-2.926,3.676-2.926a5.951,5.951,0,0,1,2.479.49Z" transform="translate(-294.795 -84.13)" fill="#db0d15"/>
    <path id="Path_642" data-name="Path 642" d="M480.657,135.444h-2.206v-9.715h2.206Zm-2.09-11.257a.991.991,0,0,1,1.009-.995.964.964,0,0,1,.966.995.978.978,0,0,1-.966.98,1,1,0,0,1-1.009-.98" transform="translate(-309.777 -79.762)" fill="#db0d15"/>
    <path id="Path_643" data-name="Path 643" d="M490.1,130.388h2.177v4.3h.043c.216-.375.447-.721.663-1.066l2.206-3.229h2.7l-3.215,4.137,3.387,5.578h-2.565l-2.379-4.194-.836,1.023V140.1H490.1Z" transform="translate(-317.32 -84.421)" fill="#db0d15"/>
    <path id="Path_644" data-name="Path 644" d="M515.206,130.388h2.206v7.87h3.863V140.1h-6.068Z" transform="translate(-333.574 -84.421)" fill="#db0d15"/>
    <path id="Path_645" data-name="Path 645" d="M538.3,135.444H536.1v-9.715H538.3Zm-2.09-11.257a.991.991,0,0,1,1.009-.995.964.964,0,0,1,.966.995.978.978,0,0,1-.966.98,1,1,0,0,1-1.009-.98" transform="translate(-347.099 -79.762)" fill="#db0d15"/>
    <path id="Path_646" data-name="Path 646" d="M555.041,135.236a10.871,10.871,0,0,1-3.243.548,5.412,5.412,0,0,1-3.949-1.312,4.7,4.7,0,0,1-1.37-3.531c.015-3.229,2.364-5.073,5.55-5.073a6.686,6.686,0,0,1,2.7.476l-.461,1.759a5.373,5.373,0,0,0-2.263-.418,3.165,3.165,0,1,0,.922,6.184v-2.033h-1.5v-1.715h3.617Zm-4.454-11.675a.758.758,0,0,0,.85.663.808.808,0,0,0,.908-.663h1.125a1.772,1.772,0,0,1-2.018,1.816c-1.427,0-2-.764-2.018-1.816Z" transform="translate(-353.822 -80)" fill="#db0d15"/>
    <path id="Path_647" data-name="Path 647" d="M577.835,135.444h-2.206v-9.715h2.206Zm-2.09-11.257a.991.991,0,0,1,1.009-.995.964.964,0,0,1,.966.995.978.978,0,0,1-.966.98,1,1,0,0,1-1.009-.98" transform="translate(-372.695 -79.762)" fill="#db0d15"/>
    <path id="Path_648" data-name="Path 648" d="M595.539,130.386a17.46,17.46,0,0,1,2.84-.2,5.365,5.365,0,0,1,2.868.548,2.114,2.114,0,0,1,1.168,1.9,2.2,2.2,0,0,1-1.6,2.076v.029a2.431,2.431,0,0,1,1.932,2.393,2.589,2.589,0,0,1-1.009,2.061,6.132,6.132,0,0,1-3.819.88,16.958,16.958,0,0,1-2.379-.145Zm2.177,3.719h.721c1.153,0,1.773-.476,1.773-1.2s-.562-1.125-1.557-1.125a5.926,5.926,0,0,0-.937.058Zm0,4.309a7,7,0,0,0,.85.029c.995,0,1.874-.374,1.874-1.4,0-.98-.879-1.369-1.975-1.369h-.749Z" transform="translate(-385.586 -84.289)" fill="#db0d15"/>
    <path id="Path_649" data-name="Path 649" d="M621.035,137.609l-.692,2.494h-2.277l2.969-9.715h2.883l3.013,9.715h-2.364l-.749-2.494Zm2.465-1.643-.606-2.061c-.173-.576-.346-1.3-.49-1.874h-.029c-.144.576-.288,1.312-.447,1.874l-.577,2.061Z" transform="translate(-400.171 -84.421)" fill="#db0d15"/>
    <path id="Path_650" data-name="Path 650" d="M646.888,130.388h2.177v4.3h.043c.216-.375.447-.721.663-1.066l2.205-3.229h2.7l-3.215,4.137,3.387,5.578h-2.565l-2.378-4.194-.836,1.023V140.1h-2.177Z" transform="translate(-418.832 -84.421)" fill="#db0d15"/>
    <path id="Path_651" data-name="Path 651" d="M673.487,137.609,672.8,140.1h-2.277l2.969-9.715h2.883l3.012,9.715h-2.364l-.75-2.494Zm2.465-1.643-.606-2.061c-.173-.576-.346-1.3-.49-1.874h-.029c-.144.576-.288,1.312-.447,1.874l-.577,2.061Z" transform="translate(-434.131 -84.421)" fill="#db0d15"/>
    <path id="Path_652" data-name="Path 652" d="M699.34,140.1v-9.715h2.566l2.018,3.56a28.183,28.183,0,0,1,1.586,3.329h.043a36.133,36.133,0,0,1-.187-4.05v-2.84h2.018V140.1h-2.306L703,136.355a36.032,36.032,0,0,1-1.686-3.43l-.043.015c.057,1.282.086,2.652.086,4.237V140.1Z" transform="translate(-452.792 -84.421)" fill="#db0d15"/>
    <path id="Path_653" data-name="Path 653" d="M727.549,130.388h2.206v7.87h3.863V140.1h-6.068Z" transform="translate(-471.057 -84.421)" fill="#db0d15"/>
    <rect id="Rectangle_218" data-name="Rectangle 218" width="2.206" height="9.715" transform="translate(263.857 45.967)" fill="#db0d15"/>
    <path id="Path_654" data-name="Path 654" d="M767.384,135.236a10.87,10.87,0,0,1-3.243.548,5.414,5.414,0,0,1-3.95-1.312,4.7,4.7,0,0,1-1.369-3.531c.015-3.229,2.364-5.073,5.55-5.073a6.686,6.686,0,0,1,2.7.476l-.461,1.759a5.373,5.373,0,0,0-2.263-.418,3.165,3.165,0,1,0,.922,6.184v-2.033h-1.5v-1.715h3.617Zm-4.454-11.675a.758.758,0,0,0,.85.663.808.808,0,0,0,.908-.663h1.125a1.772,1.772,0,0,1-2.018,1.816c-1.427,0-2-.764-2.018-1.816Z" transform="translate(-491.305 -80)" fill="#db0d15"/>
    <rect id="Rectangle_219" data-name="Rectangle 219" width="2.206" height="9.715" transform="translate(277.795 45.967)" fill="#db0d15"/>
  </g>
</svg>
