<?xml version="1.0" encoding="UTF-8" standalone="no"?>
<svg
   xmlns:dc="http://purl.org/dc/elements/1.1/"
   xmlns:cc="http://creativecommons.org/ns#"
   xmlns:rdf="http://www.w3.org/1999/02/22-rdf-syntax-ns#"
   xmlns:svg="http://www.w3.org/2000/svg"
   xmlns="http://www.w3.org/2000/svg"
   xmlns:sodipodi="http://sodipodi.sourceforge.net/DTD/sodipodi-0.dtd"
   xmlns:inkscape="http://www.inkscape.org/namespaces/inkscape"
   viewBox="0 0 100 143"
   height="143"
   width="100"
   xml:space="preserve"
   id="svg2"
   version="1.1"
   sodipodi:docname="kkkkkkkkkkkkkkkkkkkkkkkkkkkkkkkkkkkkkkkkkkkkkkkkkkkkkkkkkkkkkkkkkkkkkkkkkkkkkkkkkkkkkkkkkkkkkkkkkkkkkkkkkkkkkkkkkkkkk.svg"
   inkscape:version="0.92.2 (5c3e80d, 2017-08-06)"><title
     id="title952">Hacettepe Üniversitesi logo</title><sodipodi:namedview
     pagecolor="#ffffff"
     bordercolor="#000000"
     borderopacity="0.37254902"
     objecttolerance="1"
     gridtolerance="1"
     guidetolerance="1"
     inkscape:pageopacity="0"
     inkscape:pageshadow="2"
     inkscape:window-width="1366"
     inkscape:window-height="705"
     id="namedview15"
     showgrid="false"
     inkscape:showpageshadow="false"
     inkscape:zoom="1"
     inkscape:cx="84.937851"
     inkscape:cy="77.434864"
     inkscape:window-x="-8"
     inkscape:window-y="-8"
     inkscape:window-maximized="1"
     inkscape:current-layer="svg2" /><metadata
     id="metadata8"><rdf:RDF><cc:Work
         rdf:about=""><dc:format>image/svg+xml</dc:format><dc:type
           rdf:resource="http://purl.org/dc/dcmitype/StillImage" /><dc:title>Hacettepe Üniversitesi logo</dc:title><cc:license
           rdf:resource="http://scripts.sil.org/OFL" /></cc:Work><cc:License
         rdf:about="http://scripts.sil.org/OFL"><cc:permits
           rdf:resource="http://scripts.sil.org/pub/OFL/Reproduction" /><cc:permits
           rdf:resource="http://scripts.sil.org/pub/OFL/Distribution" /><cc:permits
           rdf:resource="http://scripts.sil.org/pub/OFL/Embedding" /><cc:permits
           rdf:resource="http://scripts.sil.org/pub/OFL/DerivativeWorks" /><cc:requires
           rdf:resource="http://scripts.sil.org/pub/OFL/Notice" /><cc:requires
           rdf:resource="http://scripts.sil.org/pub/OFL/Attribution" /><cc:requires
           rdf:resource="http://scripts.sil.org/pub/OFL/ShareAlike" /><cc:requires
           rdf:resource="http://scripts.sil.org/pub/OFL/DerivativeRenaming" /><cc:requires
           rdf:resource="http://scripts.sil.org/pub/OFL/BundlingWhenSelling" /></cc:License></rdf:RDF></metadata><defs
     id="defs6" /><g
     transform="matrix(0.58637794,0,0,-0.58637794,2.4067001,141.83477)"
     id="g10"><g
       transform="scale(0.1)"
       id="g12"><path
         id="path16"
         style="fill:#ed1e24;fill-opacity:1;fill-rule:evenodd;stroke:none"
         d="M 240,2200 C 38.1445,1652.51 44.8477,730.988 240,180 539.594,57.6211 1101.25,54.4414 1400,180 c 193.18,555.18 176.83,1448.36 0,2010 -279.99,165.11 -865.172,152.79 -1160,10 z m 490,200 c 56.664,0 113.328,0 170,0 218.26,-18.4 407.79,-65.54 570,-140 87.72,-278.94 129.15,-604.18 160,-940 0,-113.33 0,-226.67 0,-340 C 1602.65,667.352 1549.29,380.711 1470,120 1337.05,46.2813 1147.36,29.3086 970,0 863.328,0 756.664,0 650,0 479.48,29.4805 302.52,52.5195 170,120 74.5313,391.199 27.9063,711.238 0,1050 c 0,96.67 0,193.33 0,290 28.5742,341.43 70.6992,669.3 180,930 161.508,65.16 342.809,110.53 550,130"
         inkscape:connector-curvature="0" /><path
         id="path20"
         style="fill:#ffffff;fill-opacity:1;fill-rule:evenodd;stroke:none"
         d="M 290,2160 C 90.8359,1633.09 105.426,772.949 280,230 552.793,107.469 1063.42,113.559 1350,220 c 192.91,542.148 167.13,1388.26 0,1940 -280.6,129.25 -777.645,126.52 -1060,0 z m 1110,30 C 1576.83,1628.36 1593.18,735.18 1400,180 1101.25,54.4414 539.594,57.6211 240,180 44.8477,730.988 38.1445,1652.51 240,2200 c 294.828,142.79 880.01,155.11 1160,-10"
         inkscape:connector-curvature="0" /><path
         id="path22"
         style="fill:#ed1e24;fill-opacity:1;fill-rule:evenodd;stroke:none"
         d="m 920,2120 c -10,0 -20,0 -30,0 -136.445,-116.89 -341.855,-164.81 -490,-270 52.227,6.97 125.055,38.14 180,10 11.047,-167.55 -31.832,-344.21 -40,-530 -10.574,-240.51 21.395,-441.441 60,-640 29.824,-153.41 47.066,-304.109 120,-410 -16.031,214.219 -91.562,454.922 -80,730 112.223,79.18 373.77,85.24 440,-40 -27.67,-226.219 -129.207,-488.711 -110,-690 42.3,94.191 75.21,213.66 110,340 23.23,84.379 101.6,304.809 90,370 -19.06,107.07 -208.367,182.13 -350,170 -77.996,-6.68 -132.727,-55.02 -190,-60 4.809,431.86 19.402,853.93 290,1020 z m 430,40 C 1517.13,1608.26 1542.91,762.148 1350,220 1063.42,113.559 552.793,107.469 280,230 105.426,772.949 90.8359,1633.09 290,2160 c 282.355,126.52 779.4,129.25 1060,0"
         inkscape:connector-curvature="0" /><path
         id="path24"
         style="fill:#ffffff;fill-opacity:1;fill-rule:evenodd;stroke:none"
         d="m 630,1100 c 57.273,4.98 112.004,53.32 190,60 141.633,12.13 330.94,-62.93 350,-170 11.6,-65.191 -66.77,-285.621 -90,-370 -34.79,-126.34 -67.7,-245.809 -110,-340 -19.207,201.289 82.33,463.781 110,690 -66.23,125.24 -327.777,119.18 -440,40 -11.562,-275.078 63.969,-515.781 80,-730 -72.934,105.891 -90.176,256.59 -120,410 -38.605,198.559 -70.574,399.49 -60,640 8.168,185.79 51.047,362.45 40,530 -54.945,28.14 -127.773,-3.03 -180,-10 148.145,105.19 353.555,153.11 490,270 10,0 20,0 30,0 C 649.402,1953.93 634.809,1531.86 630,1100"
         inkscape:connector-curvature="0" /></g></g></svg>