<svg xmlns="http://www.w3.org/2000/svg" width="283.46" height="283.46" viewBox="0 0 283.46 283.46"><defs><style>.cls-1,.cls-2{fill:#da291c;}.cls-2{fill-rule:evenodd;}</style></defs><g id="Layer_2" data-name="Layer 2"><g id="Layer_1-2" data-name="Layer 1"><path class="cls-1" d="M240.53,240.28h-5.08a1.12,1.12,0,0,1-.64-2l1.45-1.26a6.74,6.74,0,0,1,4.39-1.66h5.07a1.12,1.12,0,0,1,.65,2l-1.45,1.25a6.67,6.67,0,0,1-4.39,1.66"/><path class="cls-1" d="M247.17,233.15l-5.07.36a1.12,1.12,0,0,1-.78-1.92l1.37-1.37a6.66,6.66,0,0,1,4.25-1.95l5.07-.36a1.12,1.12,0,0,1,.78,1.92l-1.36,1.36a6.7,6.7,0,0,1-4.26,2"/><path class="cls-1" d="M253.3,225.58l-5,.71a1.13,1.13,0,0,1-.91-1.87l1.26-1.44a6.66,6.66,0,0,1,4.12-2.25l5-.72a1.12,1.12,0,0,1,.91,1.86l-1.26,1.46a6.76,6.76,0,0,1-4.11,2.25"/><path class="cls-1" d="M258.87,217.6l-5,1.05a1.11,1.11,0,0,1-1-1.79l1.16-1.54a6.71,6.71,0,0,1,3.94-2.53l5-1a1.12,1.12,0,0,1,1,1.79l-1.17,1.54a6.76,6.76,0,0,1-3.94,2.53"/><path class="cls-1" d="M263.87,209.25,259,210.64a1.13,1.13,0,0,1-1.17-1.72l1.06-1.61a6.68,6.68,0,0,1,3.75-2.8l4.88-1.39a1.12,1.12,0,0,1,1.18,1.71l-1.06,1.61a6.7,6.7,0,0,1-3.77,2.81"/><path class="cls-1" d="M268.29,200.56l-4.76,1.73a1.12,1.12,0,0,1-1.29-1.63l.94-1.67a6.63,6.63,0,0,1,3.56-3.06l4.76-1.73a1.12,1.12,0,0,1,1.29,1.62l-.94,1.69a6.65,6.65,0,0,1-3.56,3.05"/><path class="cls-1" d="M272.09,191.59l-4.64,2.07a1.12,1.12,0,0,1-1.39-1.54l.82-1.74a6.65,6.65,0,0,1,3.33-3.3l4.64-2.07a1.12,1.12,0,0,1,1.39,1.54l-.82,1.75a6.75,6.75,0,0,1-3.33,3.29"/><path class="cls-1" d="M275.25,182.38l-4.48,2.38a1.12,1.12,0,0,1-1.5-1.43l.69-1.8a6.78,6.78,0,0,1,3.1-3.52l4.49-2.39a1.12,1.12,0,0,1,1.49,1.44l-.69,1.8a6.7,6.7,0,0,1-3.1,3.52"/><path class="cls-1" d="M277.76,173l-4.3,2.7a1.13,1.13,0,0,1-1.59-1.34l.56-1.83a6.74,6.74,0,0,1,2.85-3.74l4.3-2.68a1.12,1.12,0,0,1,1.59,1.32l-.57,1.84a6.59,6.59,0,0,1-2.84,3.73"/><path class="cls-1" d="M279.61,163.41l-4.11,3a1.12,1.12,0,0,1-1.68-1.2l.44-1.88a6.7,6.7,0,0,1,2.58-3.92l4.1-3a1.12,1.12,0,0,1,1.68,1.21l-.44,1.88a6.69,6.69,0,0,1-2.57,3.91"/><path class="cls-1" d="M280.79,153.75,276.91,157a1.12,1.12,0,0,1-1.77-1.09l.31-1.9a6.67,6.67,0,0,1,2.29-4.1l3.89-3.26a1.12,1.12,0,0,1,1.76,1.09l-.3,1.91a6.78,6.78,0,0,1-2.3,4.09"/><path class="cls-1" d="M281.29,144l-3.65,3.53a1.13,1.13,0,0,1-1.84-1l.18-1.92a6.62,6.62,0,0,1,2-4.24l3.65-3.53a1.12,1.12,0,0,1,1.83,1l-.17,1.92a6.64,6.64,0,0,1-2,4.24"/><path class="cls-1" d="M281.11,134.28l-3.4,3.77a1.11,1.11,0,0,1-1.89-.83l0-1.93a6.74,6.74,0,0,1,1.7-4.37l3.4-3.77a1.12,1.12,0,0,1,1.89.84l0,1.92a6.72,6.72,0,0,1-1.7,4.37"/><path class="cls-1" d="M280.25,124.59l-3.12,4a1.12,1.12,0,0,1-2-.7l-.1-1.93a6.71,6.71,0,0,1,1.4-4.47l3.13-4a1.12,1.12,0,0,1,1.95.7l.1,1.93a6.75,6.75,0,0,1-1.4,4.48"/><path class="cls-1" d="M278.72,115l-2.84,4.2a1.12,1.12,0,0,1-2-.56l-.23-1.92a6.67,6.67,0,0,1,1.07-4.56l2.85-4.2a1.12,1.12,0,0,1,2,.56l.23,1.92a6.68,6.68,0,0,1-1.07,4.56"/><path class="cls-1" d="M276.51,105.48,274,109.87a1.12,1.12,0,0,1-2-.43l-.37-1.89a6.73,6.73,0,0,1,.76-4.62l2.54-4.39a1.12,1.12,0,0,1,2,.42l.36,1.89a6.69,6.69,0,0,1-.76,4.63"/><path class="cls-1" d="M273.66,96.17l-2.23,4.57a1.12,1.12,0,0,1-2.05-.29l-.49-1.86a6.64,6.64,0,0,1,.42-4.67l2.23-4.56a1.12,1.12,0,0,1,2,.28l.5,1.86a6.76,6.76,0,0,1-.43,4.67"/><path class="cls-1" d="M270.16,87.08l-1.9,4.71a1.12,1.12,0,0,1-2.07-.15l-.63-1.81a6.69,6.69,0,0,1,.1-4.69l1.9-4.71a1.12,1.12,0,0,1,2.07.14l.63,1.83a6.72,6.72,0,0,1-.1,4.68"/><path class="cls-1" d="M266,78.25l-1.58,4.83a1.12,1.12,0,0,1-2.07,0l-.74-1.78a6.69,6.69,0,0,1-.23-4.68L263,71.8a1.12,1.12,0,0,1,2.07,0l.76,1.77a6.7,6.7,0,0,1,.22,4.68"/><path class="cls-1" d="M261.3,69.75l-1.23,4.92a1.12,1.12,0,0,1-2.07.16l-.88-1.73a6.78,6.78,0,0,1-.55-4.65l1.24-4.92a1.12,1.12,0,0,1,2.07-.15l.87,1.72a6.73,6.73,0,0,1,.55,4.65"/><path class="cls-1" d="M256,61.59l-.88,5a1.12,1.12,0,0,1-2,.3l-1-1.65a6.71,6.71,0,0,1-.87-4.61l.88-5a1.12,1.12,0,0,1,2.05-.3l1,1.66a6.76,6.76,0,0,1,.87,4.61"/><path class="cls-1" d="M250.11,53.82l-.53,5a1.12,1.12,0,0,1-2,.44l-1.1-1.58a6.67,6.67,0,0,1-1.19-4.53l.53-5a1.12,1.12,0,0,1,2-.44l1.11,1.59a6.64,6.64,0,0,1,1.19,4.53"/><path class="cls-1" d="M243.71,46.47l-.17,5.07a1.13,1.13,0,0,1-2,.58l-1.2-1.5a6.64,6.64,0,0,1-1.51-4.44l.18-5.07a1.12,1.12,0,0,1,2-.58l1.2,1.5a6.64,6.64,0,0,1,1.51,4.44"/><path class="cls-1" d="M236.82,39.59l.17,5.08a1.12,1.12,0,0,1-1.94.71L233.73,44a6.77,6.77,0,0,1-1.81-4.32l-.18-5.08a1.14,1.14,0,0,1,2-.72l1.3,1.42a6.7,6.7,0,0,1,1.82,4.32"/><path class="cls-1" d="M229.46,33.21l.53,5a1.12,1.12,0,0,1-1.89.85l-1.41-1.32a6.7,6.7,0,0,1-2.11-4.19l-.53-5a1.12,1.12,0,0,1,1.89-.85L227.35,29a6.7,6.7,0,0,1,2.11,4.18"/><path class="cls-1" d="M221.68,27.36l.87,5a1.12,1.12,0,0,1-1.83,1l-1.49-1.22a6.7,6.7,0,0,1-2.4-4l-.88-5a1.12,1.12,0,0,1,1.83-1l1.5,1.22a6.8,6.8,0,0,1,2.4,4"/><path class="cls-1" d="M213.49,22.07,214.72,27a1.12,1.12,0,0,1-1.75,1.1L211.39,27a6.66,6.66,0,0,1-2.67-3.84l-1.23-4.93a1.13,1.13,0,0,1,1.76-1.11l1.57,1.11a6.74,6.74,0,0,1,2.67,3.86"/><path class="cls-1" d="M205,17.35l1.57,4.83a1.12,1.12,0,0,1-1.68,1.22l-1.64-1a6.73,6.73,0,0,1-2.94-3.65l-1.57-4.83a1.12,1.12,0,0,1,1.67-1.22l1.65,1A6.62,6.62,0,0,1,205,17.35"/><path class="cls-1" d="M196.13,13.25,198,18a1.13,1.13,0,0,1-1.59,1.34l-1.71-.87A6.76,6.76,0,0,1,191.56,15l-1.9-4.71a1.12,1.12,0,0,1,1.58-1.34l1.72.89a6.61,6.61,0,0,1,3.17,3.44"/><path class="cls-1" d="M187,9.77l2.22,4.56a1.12,1.12,0,0,1-1.48,1.44L186,15a6.64,6.64,0,0,1-3.41-3.21l-2.23-4.56a1.13,1.13,0,0,1,1.49-1.45l1.77.77A6.62,6.62,0,0,1,187,9.77"/><path class="cls-1" d="M177.72,6.93l2.54,4.39a1.13,1.13,0,0,1-1.39,1.55l-1.82-.63a6.73,6.73,0,0,1-3.63-3l-2.53-4.39a1.12,1.12,0,0,1,1.38-1.55l1.81.64a6.65,6.65,0,0,1,3.64,3"/><path class="cls-1" d="M168.22,4.74,171.07,9a1.13,1.13,0,0,1-1.28,1.64l-1.86-.5a6.73,6.73,0,0,1-3.83-2.7l-2.84-4.21a1.13,1.13,0,0,1,1.28-1.65L164.4,2a6.74,6.74,0,0,1,3.82,2.7"/><path class="cls-1" d="M158.6,3.23l3.12,4A1.12,1.12,0,0,1,160.57,9l-1.89-.37a6.67,6.67,0,0,1-4-2.43l-3.12-4A1.12,1.12,0,0,1,152.7.43l1.88.37a6.69,6.69,0,0,1,4,2.43"/><path class="cls-1" d="M148.9,2.39l3.39,3.77a1.12,1.12,0,0,1-1,1.8l-1.9-.23a6.74,6.74,0,0,1-4.18-2.15L141.78,1.8a1.12,1.12,0,0,1,1-1.79l1.91.24a6.71,6.71,0,0,1,4.18,2.14"/><path class="cls-1" d="M139.15,2.23l3.66,3.54a1.12,1.12,0,0,1-.91,1.86L140,7.52a6.7,6.7,0,0,1-4.31-1.85L132,2.14a1.12,1.12,0,0,1,.9-1.87l1.92.12a6.69,6.69,0,0,1,4.31,1.84"/><path class="cls-1" d="M129.43,2.75,133.32,6a1.12,1.12,0,0,1-.78,1.92l-1.92,0a6.68,6.68,0,0,1-4.43-1.54L122.3,3.16a1.12,1.12,0,0,1,.77-1.92l1.93,0a6.75,6.75,0,0,1,4.43,1.54"/><path class="cls-1" d="M119.76,4l4.11,3a1.13,1.13,0,0,1-.64,2l-1.92.16a6.72,6.72,0,0,1-4.52-1.23l-4.11-3a1.13,1.13,0,0,1,.64-2l1.91-.16A6.66,6.66,0,0,1,119.76,4"/><path class="cls-1" d="M110.19,5.82,114.5,8.5a1.13,1.13,0,0,1-.49,2l-1.91.3a6.71,6.71,0,0,1-4.6-.92l-4.3-2.68a1.13,1.13,0,0,1,.49-2l1.91-.3a6.67,6.67,0,0,1,4.59.92"/><path class="cls-1" d="M100.79,8.36l4.49,2.37a1.13,1.13,0,0,1-.36,2l-1.88.43a6.71,6.71,0,0,1-4.65-.6L93.9,10.23a1.11,1.11,0,0,1,.36-2l1.88-.45a6.67,6.67,0,0,1,4.65.61"/><path class="cls-1" d="M91.58,11.53l4.64,2.06A1.13,1.13,0,0,1,96,15.66l-1.85.56A6.72,6.72,0,0,1,89.48,16l-4.64-2.06a1.13,1.13,0,0,1,.21-2.07l1.85-.56a6.72,6.72,0,0,1,4.68.27"/><path class="cls-1" d="M82.62,15.34l4.77,1.74a1.12,1.12,0,0,1-.07,2.07l-1.8.69a6.65,6.65,0,0,1-4.69.06l-4.77-1.73a1.13,1.13,0,0,1,.07-2.08l1.8-.68a6.7,6.7,0,0,1,4.69-.07"/><path class="cls-1" d="M73.94,19.78l4.88,1.39a1.13,1.13,0,0,1,.08,2.08l-1.75.8a6.75,6.75,0,0,1-4.67.4l-4.89-1.4A1.13,1.13,0,0,1,67.52,21l1.75-.81a6.69,6.69,0,0,1,4.67-.38"/><path class="cls-1" d="M65.59,24.8l5,1.06a1.12,1.12,0,0,1,.22,2.06l-1.68.93a6.74,6.74,0,0,1-4.64.71l-5-1.06a1.12,1.12,0,0,1-.23-2.06L61,25.51a6.72,6.72,0,0,1,4.63-.71"/><path class="cls-1" d="M57.62,30.4l5,.7a1.12,1.12,0,0,1,.36,2l-1.62,1a6.68,6.68,0,0,1-4.56,1l-5-.7a1.12,1.12,0,0,1-.36-2L53,31.42a6.79,6.79,0,0,1,4.58-1"/><path class="cls-1" d="M50.06,36.53l5.06.36a1.12,1.12,0,0,1,.5,2L54.08,40a6.63,6.63,0,0,1-4.49,1.36l-5.06-.35A1.12,1.12,0,0,1,44,39l1.54-1.16a6.68,6.68,0,0,1,4.5-1.35"/><path class="cls-1" d="M42.94,43.17H48a1.13,1.13,0,0,1,.64,2l-1.45,1.26a6.74,6.74,0,0,1-4.39,1.66H37.75a1.12,1.12,0,0,1-.65-2l1.45-1.25a6.68,6.68,0,0,1,4.39-1.67"/><path class="cls-1" d="M36.3,50.31,41.37,50a1.12,1.12,0,0,1,.78,1.92l-1.37,1.35a6.68,6.68,0,0,1-4.25,2l-5.07.36a1.12,1.12,0,0,1-.78-1.92L32,52.27a6.7,6.7,0,0,1,4.26-2"/><path class="cls-1" d="M30.18,57.88l5-.7A1.12,1.12,0,0,1,36.12,59l-1.27,1.45a6.71,6.71,0,0,1-4.11,2.25l-5,.71a1.13,1.13,0,0,1-.92-1.87l1.27-1.45a6.66,6.66,0,0,1,4.11-2.25"/><path class="cls-1" d="M24.6,65.86l5-1a1.12,1.12,0,0,1,1,1.79l-1.16,1.54a6.71,6.71,0,0,1-3.94,2.53l-5,1a1.12,1.12,0,0,1-1-1.79l1.17-1.53a6.71,6.71,0,0,1,3.94-2.54"/><path class="cls-1" d="M19.59,74.22l4.88-1.41a1.13,1.13,0,0,1,1.17,1.72l-1.06,1.61A6.68,6.68,0,0,1,20.82,79l-4.88,1.4a1.13,1.13,0,0,1-1.17-1.72L15.83,77a6.74,6.74,0,0,1,3.76-2.8"/><path class="cls-1" d="M15.18,82.9,20,81.16a1.12,1.12,0,0,1,1.28,1.63l-.94,1.69a6.57,6.57,0,0,1-3.56,3L12,89.27a1.12,1.12,0,0,1-1.29-1.63L11.62,86a6.66,6.66,0,0,1,3.56-3.06"/><path class="cls-1" d="M11.38,91.86,16,89.8a1.13,1.13,0,0,1,1.4,1.54l-.82,1.74a6.69,6.69,0,0,1-3.33,3.3L8.62,98.45a1.12,1.12,0,0,1-1.39-1.54l.82-1.74a6.67,6.67,0,0,1,3.33-3.31"/><path class="cls-1" d="M8.22,101.07,12.7,98.7a1.12,1.12,0,0,1,1.5,1.43l-.7,1.8a6.72,6.72,0,0,1-3.09,3.52l-4.48,2.38a1.11,1.11,0,0,1-1.49-1.43l.68-1.8a6.8,6.8,0,0,1,3.1-3.53"/><path class="cls-1" d="M5.71,110.49l4.3-2.7a1.12,1.12,0,0,1,1.59,1.33L11,111A6.75,6.75,0,0,1,8.2,114.7l-4.31,2.68a1.12,1.12,0,0,1-1.59-1.32l.56-1.84a6.69,6.69,0,0,1,2.85-3.73"/><path class="cls-1" d="M3.85,120.05l4.12-3a1.12,1.12,0,0,1,1.68,1.22l-.44,1.87a6.77,6.77,0,0,1-2.58,3.93l-4.1,3a1.12,1.12,0,0,1-1.68-1.21L1.29,124a6.72,6.72,0,0,1,2.56-3.92"/><path class="cls-1" d="M2.67,129.71l3.89-3.26a1.13,1.13,0,0,1,1.77,1.09L8,129.45a6.72,6.72,0,0,1-2.29,4.09L1.84,136.8a1.12,1.12,0,0,1-1.76-1.09l.3-1.91a6.77,6.77,0,0,1,2.29-4.09"/><path class="cls-1" d="M2.18,139.44l3.65-3.53a1.12,1.12,0,0,1,1.83,1l-.17,1.91a6.64,6.64,0,0,1-2,4.24l-3.66,3.53a1.11,1.11,0,0,1-1.82-1l.17-1.92a6.72,6.72,0,0,1,2-4.24"/><path class="cls-1" d="M2.36,149.18l3.39-3.77a1.12,1.12,0,0,1,1.9.83l0,1.93a6.68,6.68,0,0,1-1.7,4.37l-3.4,3.77a1.12,1.12,0,0,1-1.89-.84l0-1.92a6.64,6.64,0,0,1,1.7-4.37"/><path class="cls-1" d="M3.22,158.88l3.12-4a1.12,1.12,0,0,1,1.95.7l.11,1.93A6.76,6.76,0,0,1,7,162l-3.13,4a1.12,1.12,0,0,1-1.95-.7l-.1-1.93a6.66,6.66,0,0,1,1.4-4.47"/><path class="cls-1" d="M4.76,168.5l2.83-4.21a1.12,1.12,0,0,1,2,.56l.24,1.92a6.76,6.76,0,0,1-1.08,4.56l-2.84,4.2a1.11,1.11,0,0,1-2-.56l-.23-1.91a6.62,6.62,0,0,1,1.08-4.56"/><path class="cls-1" d="M7,178l2.54-4.39a1.12,1.12,0,0,1,2,.43l.37,1.89a6.72,6.72,0,0,1-.76,4.62l-2.54,4.4a1.12,1.12,0,0,1-2-.43l-.36-1.89A6.74,6.74,0,0,1,7,178"/><path class="cls-1" d="M9.81,187.29,12,182.72a1.12,1.12,0,0,1,2.05.29l.49,1.86a6.68,6.68,0,0,1-.43,4.68l-2.22,4.56a1.13,1.13,0,0,1-2.06-.29L9.38,192a6.7,6.7,0,0,1,.43-4.67"/><path class="cls-1" d="M13.31,196.38l1.9-4.7a1.13,1.13,0,0,1,2.08.14l.62,1.82a6.7,6.7,0,0,1-.1,4.69L15.9,203a1.12,1.12,0,0,1-2.06-.14l-.63-1.82a6.81,6.81,0,0,1,.1-4.69"/><path class="cls-1" d="M17.44,205.2,19,200.38a1.11,1.11,0,0,1,2.07,0l.75,1.78a6.78,6.78,0,0,1,.23,4.67l-1.57,4.83a1.12,1.12,0,0,1-2.07,0l-.75-1.78a6.69,6.69,0,0,1-.23-4.68"/><path class="cls-1" d="M22.17,213.71l1.23-4.92a1.12,1.12,0,0,1,2.07-.15l.88,1.71a6.81,6.81,0,0,1,.54,4.66l-1.23,4.93a1.12,1.12,0,0,1-2.07.14l-.87-1.71a6.75,6.75,0,0,1-.55-4.66"/><path class="cls-1" d="M27.48,221.87l.88-5a1.13,1.13,0,0,1,2.06-.3l1,1.66a6.78,6.78,0,0,1,.87,4.61l-.88,5a1.12,1.12,0,0,1-2,.3l-1-1.66a6.77,6.77,0,0,1-.88-4.61"/><path class="cls-1" d="M33.35,229.64l.54-5a1.12,1.12,0,0,1,2-.44l1.1,1.58a6.67,6.67,0,0,1,1.19,4.53l-.54,5a1.11,1.11,0,0,1-2,.43l-1.1-1.58a6.72,6.72,0,0,1-1.2-4.53"/><path class="cls-1" d="M39.76,237l.18-5.07a1.11,1.11,0,0,1,2-.58l1.22,1.5a6.68,6.68,0,0,1,1.5,4.44l-.18,5.07a1.12,1.12,0,0,1-2,.58l-1.2-1.5A6.65,6.65,0,0,1,39.76,237"/><path class="cls-1" d="M46.65,243.87l-.17-5.07a1.12,1.12,0,0,1,1.94-.72l1.31,1.41a6.73,6.73,0,0,1,1.82,4.33l.17,5.06a1.12,1.12,0,0,1-1.95.72l-1.3-1.41a6.67,6.67,0,0,1-1.82-4.32"/><path class="cls-1" d="M54,250.25l-.53-5.05a1.12,1.12,0,0,1,1.89-.85l1.41,1.32a6.7,6.7,0,0,1,2.11,4.19l.53,5a1.13,1.13,0,0,1-1.89.85l-1.41-1.33A6.7,6.7,0,0,1,54,250.25"/><path class="cls-1" d="M61.8,256.1l-.89-5a1.13,1.13,0,0,1,1.84-1l1.5,1.22a6.77,6.77,0,0,1,2.38,4l.88,5a1.12,1.12,0,0,1-1.82,1l-1.5-1.22a6.66,6.66,0,0,1-2.39-4"/><path class="cls-1" d="M70,261.4l-1.22-4.93a1.12,1.12,0,0,1,1.75-1.1l1.58,1.11a6.7,6.7,0,0,1,2.67,3.85L76,265.25a1.12,1.12,0,0,1-1.76,1.1l-1.58-1.1A6.73,6.73,0,0,1,70,261.4"/><path class="cls-1" d="M78.5,266.11l-1.57-4.83a1.12,1.12,0,0,1,1.67-1.22l1.65,1a6.78,6.78,0,0,1,2.94,3.65l1.57,4.84a1.13,1.13,0,0,1-1.69,1.22l-1.64-1a6.68,6.68,0,0,1-2.93-3.65"/><path class="cls-1" d="M87.33,270.21l-1.9-4.7A1.13,1.13,0,0,1,87,264.17l1.71.88a6.66,6.66,0,0,1,3.18,3.44l1.9,4.71a1.12,1.12,0,0,1-1.58,1.34l-1.72-.88a6.72,6.72,0,0,1-3.18-3.45"/><path class="cls-1" d="M96.43,273.69l-2.22-4.56a1.12,1.12,0,0,1,1.49-1.44l1.77.76a6.68,6.68,0,0,1,3.41,3.21l2.23,4.56a1.12,1.12,0,0,1-1.49,1.44l-1.77-.75a6.72,6.72,0,0,1-3.42-3.22"/><path class="cls-1" d="M105.76,276.53l-2.54-4.39a1.12,1.12,0,0,1,1.38-1.55l1.82.63a6.73,6.73,0,0,1,3.63,3l2.53,4.39a1.12,1.12,0,0,1-1.38,1.55l-1.81-.63a6.66,6.66,0,0,1-3.63-3"/><path class="cls-1" d="M115.24,278.7l-2.84-4.19a1.12,1.12,0,0,1,1.28-1.64l1.85.5a6.76,6.76,0,0,1,3.84,2.71l2.83,4.21a1.12,1.12,0,0,1-1.27,1.63l-1.86-.5a6.67,6.67,0,0,1-3.83-2.72"/><path class="cls-1" d="M124.87,280.23l-3.12-4a1.12,1.12,0,0,1,1.15-1.72l1.89.37a6.74,6.74,0,0,1,4,2.43l3.12,4a1.13,1.13,0,0,1-1.15,1.73l-1.89-.38a6.67,6.67,0,0,1-4-2.43"/><path class="cls-1" d="M134.57,281.07l-3.39-3.77a1.12,1.12,0,0,1,1-1.8l1.91.23a6.68,6.68,0,0,1,4.17,2.16l3.4,3.76a1.13,1.13,0,0,1-1,1.8l-1.91-.24a6.71,6.71,0,0,1-4.17-2.14"/><path class="cls-1" d="M144.31,281.23l-3.65-3.53a1.12,1.12,0,0,1,.91-1.86l1.92.11a6.62,6.62,0,0,1,4.31,1.84l3.65,3.53a1.12,1.12,0,0,1-.9,1.86l-1.92-.1a6.75,6.75,0,0,1-4.32-1.85"/><path class="cls-1" d="M154,280.71l-3.89-3.27a1.12,1.12,0,0,1,.77-1.92l1.93,0a6.68,6.68,0,0,1,4.43,1.55l3.89,3.26a1.12,1.12,0,0,1-.78,1.92l-1.92,0a6.68,6.68,0,0,1-4.43-1.53"/><path class="cls-1" d="M163.71,279.51l-4.11-3a1.13,1.13,0,0,1,.64-2l1.93-.16a6.6,6.6,0,0,1,4.51,1.24l4.12,3a1.11,1.11,0,0,1-.64,2l-1.92.18a6.75,6.75,0,0,1-4.53-1.24"/><path class="cls-1" d="M173.27,277.64l-4.3-2.7a1.11,1.11,0,0,1,.49-2l1.91-.3a6.69,6.69,0,0,1,4.6.92l4.31,2.69a1.12,1.12,0,0,1-.5,2l-1.91.3a6.76,6.76,0,0,1-4.6-.92"/><path class="cls-1" d="M182.68,275.11l-4.48-2.38a1.13,1.13,0,0,1,.35-2.05l1.88-.42a6.74,6.74,0,0,1,4.66.58l4.48,2.39a1.12,1.12,0,0,1-.36,2l-1.88.43a6.66,6.66,0,0,1-4.65-.59"/><path class="cls-1" d="M191.89,271.93l-4.64-2.07a1.12,1.12,0,0,1,.21-2.06l1.85-.55a6.67,6.67,0,0,1,4.68.26l4.63,2.06a1.13,1.13,0,0,1-.21,2.07l-1.84.56a6.72,6.72,0,0,1-4.68-.27"/><path class="cls-1" d="M200.86,268.12l-4.78-1.74a1.12,1.12,0,0,1,.06-2.07l1.81-.69a6.7,6.7,0,0,1,4.69-.05l4.77,1.72a1.13,1.13,0,0,1-.06,2.08l-1.81.69a6.73,6.73,0,0,1-4.68.06"/><path class="cls-1" d="M209.53,263.69l-4.88-1.4a1.13,1.13,0,0,1-.09-2.08l1.76-.8A6.64,6.64,0,0,1,211,259l4.89,1.4a1.12,1.12,0,0,1,.07,2.07l-1.75.81a6.64,6.64,0,0,1-4.67.39"/><path class="cls-1" d="M217.87,258.66l-5-1.05a1.12,1.12,0,0,1-.22-2.07l1.68-.92a6.68,6.68,0,0,1,4.64-.71l5,1.05a1.12,1.12,0,0,1,.22,2.06l-1.7.93a6.71,6.71,0,0,1-4.63.71"/><path class="cls-1" d="M225.85,253.07l-5-.71a1.12,1.12,0,0,1-.37-2l1.62-1a6.67,6.67,0,0,1,4.57-1l5,.71a1.12,1.12,0,0,1,.37,2L230.42,252a6.67,6.67,0,0,1-4.57,1"/><path class="cls-1" d="M233.41,246.93l-5.06-.35a1.12,1.12,0,0,1-.51-2l1.55-1.16a6.62,6.62,0,0,1,4.48-1.34l5.07.34a1.13,1.13,0,0,1,.5,2l-1.55,1.16a6.68,6.68,0,0,1-4.48,1.34"/><polygon class="cls-2" points="129.76 29.9 137.18 24.56 134.31 15.81 141.67 21.21 149.1 15.79 146.25 24.46 153.71 29.85 144.57 29.81 141.75 38.57 138.97 29.87 129.76 29.9"/><polygon class="cls-2" points="87.87 42.99 92.68 35.23 86.68 28.24 95.55 30.41 100.34 22.55 101.02 31.66 109.98 33.78 101.52 37.24 102.27 46.42 96.37 39.45 87.87 42.99"/><polygon class="cls-2" points="54.19 71.12 55.66 62.1 47.45 57.95 56.47 56.56 57.89 47.46 61.99 55.62 71.08 54.16 64.6 60.58 68.8 68.78 60.68 64.59 54.19 71.12"/><polygon class="cls-2" points="33.83 110 31.74 101.11 22.56 100.41 30.37 95.67 28.19 86.72 35.11 92.69 42.95 87.86 39.41 96.28 46.43 102.24 37.33 101.48 33.83 110"/><polygon class="cls-2" points="29.89 153.7 24.56 146.29 15.81 149.16 21.21 141.79 15.78 134.36 24.46 137.22 29.85 129.76 29.81 138.89 38.57 141.72 29.87 144.5 29.89 153.7"/><polygon class="cls-2" points="42.99 195.59 35.23 190.78 28.24 196.78 30.41 187.91 22.55 183.12 31.66 182.44 33.78 173.49 37.24 181.94 46.42 181.19 39.45 187.09 42.99 195.59"/><polygon class="cls-2" points="71.12 229.28 62.11 227.81 57.94 236.02 56.56 226.99 47.46 225.58 55.62 221.47 54.15 212.38 60.58 218.86 68.78 214.66 64.59 222.78 71.12 229.28"/><polygon class="cls-2" points="110 249.63 101.1 251.73 100.41 260.91 95.67 253.1 86.72 255.27 92.69 248.35 87.86 240.52 96.28 244.05 102.24 237.03 101.48 246.13 110 249.63"/><polygon class="cls-2" points="153.71 253.57 146.29 258.9 149.16 267.65 141.79 262.25 134.36 267.68 137.22 259 129.76 253.61 138.89 253.65 141.72 244.89 144.5 253.59 153.71 253.57"/><polygon class="cls-2" points="195.59 240.47 190.78 248.24 196.78 255.22 187.91 253.05 183.12 260.91 182.44 251.8 173.49 249.68 181.94 246.22 181.19 237.04 187.09 244.02 195.59 240.47"/><polygon class="cls-2" points="229.28 212.34 227.81 221.36 236.02 225.52 226.99 226.91 225.58 236 221.47 227.84 212.38 229.31 218.87 222.88 214.67 214.69 222.78 218.87 229.28 212.34"/><polygon class="cls-2" points="249.64 173.47 251.73 182.36 260.91 183.06 253.1 187.79 255.27 196.74 248.35 190.78 240.52 195.61 244.05 187.19 237.03 181.23 246.14 181.98 249.64 173.47"/><polygon class="cls-2" points="253.57 129.76 258.9 137.17 267.65 134.31 262.25 141.67 267.68 149.1 259.01 146.24 253.62 153.7 253.66 144.57 244.89 141.75 253.59 138.97 253.57 129.76"/><polygon class="cls-2" points="240.47 87.87 248.24 92.68 255.22 86.68 253.05 95.56 260.92 100.34 251.81 101.02 249.68 109.98 246.22 101.52 237.05 102.27 244.02 96.37 240.47 87.87"/><polygon class="cls-2" points="212.35 54.19 221.36 55.66 225.52 47.44 226.91 56.47 236 57.89 227.85 62 229.31 71.08 222.88 64.6 214.69 68.8 218.87 60.68 212.35 54.19"/><polygon class="cls-2" points="173.47 33.83 182.36 31.74 183.06 22.56 187.79 30.37 196.74 28.2 190.78 35.11 195.61 42.95 187.19 39.41 181.23 46.43 181.98 37.33 173.47 33.83"/><path class="cls-1" d="M141.74,238.94A97.21,97.21,0,1,1,239,141.73a97.32,97.32,0,0,1-97.21,97.21m0-192.25a95,95,0,1,0,95,95,95.14,95.14,0,0,0-95-95"/><path class="cls-1" d="M141.67,218.26a3.41,3.41,0,1,0,3.41,3.41,3.41,3.41,0,0,0-3.41-3.41"/><path class="cls-2" d="M141.73,75.59a66.14,66.14,0,1,1-66.14,66.14,66.14,66.14,0,0,1,66.14-66.14m15.93,83.25a25.46,25.46,0,0,1-14.16,8,24,24,0,0,1-4.9.48h0a25.61,25.61,0,0,1-25.63-25.63,25.29,25.29,0,0,1,.8-6.38,25.73,25.73,0,0,1,10.82-15,23.43,23.43,0,0,1,3.4-1.89,25.61,25.61,0,0,1,29.7,6.21A32,32,0,0,0,121,111.14a25.29,25.29,0,0,0-3.81,1.48,32,32,0,0,0,13.36,61.15,14.62,14.62,0,0,0,1.62-.06,31.08,31.08,0,0,0,13.89-4,31.75,31.75,0,0,0,11.56-10.91m20.43-17.11,6.83-9.4-11.06,3.58-3.9-5.35-3-4v11.61L156,141.73,167,145.34V157l6.86-9.43,11.06,3.61-5-6.95Z"/><polygon class="cls-1" points="121.31 224.33 124.84 225.27 124.18 227.77 114.06 225.07 114.73 222.57 118.32 223.53 121.16 212.87 124.15 213.66 121.31 224.33"/><path class="cls-1" d="M107.43,222.44l3.28-7.13c1-2.13.67-3.58-.77-4.24s-2.75,0-3.75,2.17l-3.28,7.12-2.79-1.28,3.19-6.94c1.76-3.82,4.52-4.76,7.76-3.27s4.16,4,2.35,8l-3.18,6.9Zm-3.93.57a1.37,1.37,0,1,1-2.48-1.14A1.36,1.36,0,1,1,103.5,223m3.82,1.76a1.37,1.37,0,0,1-1.85.68,1.38,1.38,0,0,1,1.16-2.51,1.37,1.37,0,0,1,.69,1.83"/><path class="cls-1" d="M95.78,216.31a28.59,28.59,0,0,1-3.53-2.11c-1.66-1.15-2.65-2.21-3-3.39a3.46,3.46,0,0,1,.59-3.06,3.62,3.62,0,0,1,3.89-1.39l0-.05a3.41,3.41,0,0,1-.05-3.13c.53-1.5,1.19-3.2,1.28-3.79l2.59,1.8a17,17,0,0,1-1,3.15c-.67,1.6-.45,2.32.57,3l.76.53,3.06-4.4,2.5,1.74Zm.84-6.56-1-.69c-1.26-.88-2.45-.77-3.13.21s-.37,2,.78,2.86a9,9,0,0,0,1.2.71Z"/><path class="cls-1" d="M84.11,207.94l-2.19-2.13,4.2-4.31,0-.05c-.59.17-1.16.29-1.71.43L79,203l-2.71-2.63,7.28-1,2-8.91,2.58,2.5-1.71,6.55,1.84-.21,3.1-3.19,2.19,2.13Z"/><path class="cls-1" d="M72.37,198.79a1.39,1.39,0,0,1-2-.24,1.34,1.34,0,0,1,.25-1.92,1.36,1.36,0,0,1,1.91.2,1.39,1.39,0,0,1-.19,2m-.13-3.64,10.65-8.5,1.92,2.42-10.65,8.5Z"/><path class="cls-1" d="M79.59,182l-4.75,2.93-4.58,7.89-1.85-3,2-2.91c.62-.88,1.09-1.5,1.67-2.26l0,0c-.88.19-1.72.33-2.76.5l-3.51.55L64,182.71l9.12-.36,4.83-3Z"/><polygon class="cls-1" points="66.67 169.12 68.63 173.73 71.61 172.47 69.42 167.31 71.75 166.33 75.14 174.33 62.59 179.65 59.31 171.91 61.64 170.92 63.71 175.82 66.32 174.71 64.36 170.1 66.67 169.12"/><path class="cls-1" d="M67.6,150a8.73,8.73,0,0,1,1.21,3.33c.85,4.63-1.59,7.55-5.41,8.25-4.57.84-7.72-2-8.46-6a8,8,0,0,1,0-3.41l2.52.17a6.54,6.54,0,0,0,0,2.64c.44,2.4,2.23,4,5.22,3.46a4.07,4.07,0,0,0,3.58-5.1,7.69,7.69,0,0,0-.9-2.44Z"/><path class="cls-1" d="M54.14,145l7.84-.12c2.34,0,3.52-1,3.49-2.53s-1.17-2.48-3.57-2.45l-7.84.13L54,136.92l7.63-.12c4.21-.07,6.24,2,6.3,5.57s-1.81,5.49-6.15,5.56l-7.6.13Z"/><path class="cls-1" d="M64.93,121.72c-1.62-.27-3.57-.6-5.51-1v.06c1.62.77,3.41,1.7,4.87,2.54L69.16,126l-.48,2.35-5.46.38c-1.65.12-3.64.19-5.45.16v0c1.79.44,3.84.92,5.48,1.35l5,1.27-.56,2.79-13.18-3.55.81-4,4.72-.4c1.63-.1,3.38-.18,5-.16v-.06c-1.47-.69-3.14-1.51-4.54-2.24l-4.15-2.33.8-3.94,13.5,2-.6,3Z"/><polygon class="cls-1" points="60.33 109.11 65.13 111.2 67.15 106.55 62.35 104.46 63.58 101.64 76.08 107.08 74.85 109.89 69.62 107.62 67.59 112.27 72.82 114.55 71.59 117.39 59.09 111.94 60.33 109.11"/><path class="cls-1" d="M67.88,94.46l6.48,4.42c1.94,1.32,3.42,1.26,4.31,0s.48-2.71-1.51-4.07l-6.48-4.41,1.73-2.54,6.32,4.3c3.47,2.37,3.93,5.25,1.92,8.19s-4.64,3.44-8.23,1L66.14,97Z"/><path class="cls-1" d="M75.87,84a25.94,25.94,0,0,1,2.66-3.14c1.41-1.45,2.62-2.25,3.84-2.41a3.48,3.48,0,0,1,2.92,1.1A3.61,3.61,0,0,1,86,83.62l0,0a3.44,3.44,0,0,1,3.09.48c1.4.77,3,1.71,3.52,1.89l-2.2,2.25a17,17,0,0,1-2.93-1.53c-1.47-.93-2.21-.83-3.1,0l-.65.67,3.83,3.74-2.13,2.18Zm6.33,1.9.84-.86c1.07-1.1,1.16-2.29.31-3.12s-1.94-.71-2.94.29a7.21,7.21,0,0,0-.91,1.07Z"/><path class="cls-1" d="M84.55,72.47a1.39,1.39,0,0,1,.23-2,1.35,1.35,0,0,1,1.93.24,1.38,1.38,0,0,1-.19,1.92,1.41,1.41,0,0,1-2-.19m3.64-.15L96.71,83,94.3,84.89,85.78,74.26Z"/><path class="cls-1" d="M101.39,79.64,98.45,74.9l-7.9-4.56,3-1.86,2.91,2c.89.62,1.51,1.09,2.27,1.66l0,0c-.18-.88-.33-1.72-.49-2.76L97.7,65.9l2.93-1.82L101,73.2,104,78Z"/><polygon class="cls-1" points="114.22 66.72 109.61 68.68 110.87 71.66 116.02 69.47 117.01 71.79 109.02 75.2 103.68 62.66 111.42 59.37 112.41 61.69 107.52 63.77 108.62 66.38 113.24 64.41 114.22 66.72"/><polygon class="cls-1" points="119.08 59.72 115.54 60.62 114.9 58.12 125.04 55.52 125.68 58.03 122.08 58.95 124.81 69.64 121.82 70.41 119.08 59.72"/><path class="cls-1" d="M128.44,52.9a1.37,1.37,0,0,1,1.21-1.57,1.35,1.35,0,0,1,1.53,1.2A1.37,1.37,0,0,1,130,54.07a1.39,1.39,0,0,1-1.58-1.17m3.19,1.75,1.79,13.51-3.07.41-1.79-13.51Z"/><path class="cls-1" d="M150.66,54.54a26.31,26.31,0,0,1,4.16.41c2.55.42,4.13,1.16,5.26,2.35a6,6,0,0,1,1.42,5.45,6.91,6.91,0,0,1-3.14,5.07c-1.61.94-3.86,1.13-6.49.69a27.3,27.3,0,0,1-3.42-.77ZM151.88,66a4.85,4.85,0,0,0,1,.24c2.75.48,4.8-.73,5.34-3.94.48-2.79-.9-4.54-3.52-5a6.31,6.31,0,0,0-1.39-.11Z"/><rect class="cls-1" x="159.94" y="63.31" width="13.63" height="3.09" transform="translate(53.48 203.36) rotate(-71.97)"/><path class="cls-1" d="M171.11,70.22a8,8,0,0,0,2.73,2.23c1.28.6,2.2.39,2.58-.41s0-1.48-1.24-2.71c-1.71-1.69-2.5-3.45-1.66-5.24,1-2.1,3.51-2.88,6.42-1.5a8.36,8.36,0,0,1,2.85,2.11l-1.69,2a6.43,6.43,0,0,0-2.3-1.8c-1.2-.57-2.05-.3-2.35.34s.16,1.46,1.46,2.81c1.79,1.84,2.28,3.45,1.46,5.19s-2.67,2.71-5.28,2l-.75.56a1.54,1.54,0,0,1,.7,1.92c-.56,1.19-1.85,1.11-3,.58a3.29,3.29,0,0,1-1.31-1.07l.86-.87a2.46,2.46,0,0,0,.86.79c.33.15.7.17.86-.17s-.14-.79-1.11-1.34l1.3-1-.06,0a9.08,9.08,0,0,1-3-2.34Z"/><path class="cls-1" d="M190.27,68.73,182.92,80.2l-2.61-1.67,7.35-11.47Zm-1.3-3.4a1.38,1.38,0,0,1,1.94-.41,1.34,1.34,0,0,1,.39,1.9,1.38,1.38,0,0,1-1.88.43,1.4,1.4,0,0,1-.45-1.92"/><path class="cls-1" d="M188.15,79.92a7.72,7.72,0,0,0,2.07,2.84c1.09.91,2,.94,2.61.26s.36-1.44-.52-2.94c-1.23-2.06-1.56-4-.29-5.48,1.49-1.79,4.12-1.91,6.59.16a8.22,8.22,0,0,1,2.22,2.75L198.71,79a6.47,6.47,0,0,0-1.77-2.32c-1-.86-1.91-.81-2.36-.27s-.22,1.46.7,3.1c1.28,2.22,1.34,3.91.11,5.38s-3.27,2-5.61.63l-.87.35a1.55,1.55,0,0,1,.19,2c-.84,1-2.07.61-3-.19a3.33,3.33,0,0,1-1-1.36l1.05-.63a2.59,2.59,0,0,0,.63,1c.28.23.64.34.88,0s.06-.8-.74-1.57l1.51-.64-.05,0a9.17,9.17,0,0,1-2.32-3Z"/><polygon class="cls-1" points="205.22 81.19 207.25 83.52 198.94 90.78 202.51 94.86 200.56 96.56 194.96 90.16 205.22 81.19"/><polygon class="cls-1" points="211.4 102.63 208.73 98.39 205.99 100.11 208.98 104.85 206.84 106.2 202.2 98.85 213.73 91.58 218.22 98.69 216.08 100.04 213.24 95.54 210.85 97.05 213.52 101.29 211.4 102.63"/><path class="cls-1" d="M220.66,103.72a27.1,27.1,0,0,1,1.84,3.68c.78,1.86,1.05,3.29.71,4.48a3.45,3.45,0,0,1-2.14,2.25,3.62,3.62,0,0,1-4-.92l0,0a3.44,3.44,0,0,1-1.65,2.66c-1.26,1-2.73,2.07-3.12,2.51L211,115.49a17.42,17.42,0,0,1,2.56-2.1c1.42-1,1.63-1.71,1.16-2.87l-.36-.86-4.94,2.06-1.18-2.81Zm-4.23,5.08.46,1.12c.6,1.42,1.66,2,2.76,1.5s1.4-1.51.88-2.82a7.12,7.12,0,0,0-.64-1.25Z"/><path class="cls-1" d="M226.81,120.58l-13.16,3.51-.8-3L226,117.59Zm1.34-3.39a1.38,1.38,0,0,1,1.71,1,1.34,1.34,0,0,1-1,1.66,1.37,1.37,0,0,1-1.68-1,1.4,1.4,0,0,1,1-1.72"/><path class="cls-1" d="M228.81,132.27a25,25,0,0,1,.49,4,7.56,7.56,0,0,1-.55,4.06,3,3,0,0,1-2.58,1.77,3.06,3.06,0,0,1-3-2.08h0a3.41,3.41,0,0,1-3.21,2.88,3.62,3.62,0,0,1-3-1.26c-.84-.95-1.37-2.58-1.52-5.28a22.83,22.83,0,0,1,0-3.34Zm-11.08,3.64a8.37,8.37,0,0,0,0,1.2c.08,1.39.67,2.59,2.1,2.52s1.85-1.34,1.77-2.87l-.06-1Zm6-.32.06,1c.08,1.62.8,2.45,1.8,2.4s1.54-.87,1.46-2.27a7.18,7.18,0,0,0-.15-1.3Z"/><path class="cls-1" d="M218.85,149.86l-3.34-1.42.42-3.17,13,5.91-.53,4L214.3,157.6l.44-3.29,3.6-.58Zm1.83,3.73,3-.47c.83-.13,1.87-.24,2.7-.33v0c-.77-.31-1.77-.65-2.52-1l-2.76-1.18Z"/><path class="cls-1" d="M226.45,164.77l-1,2.89-5.72-1.9,0,.06c.41.45.76.91,1.13,1.35l3.32,4.37L223,175.13,218.93,169l-8.93,2,1.14-3.42,6.63-1.31-1-1.56-4.22-1.4,1-2.9Z"/><path class="cls-1" d="M210.32,177.93l-2.57-2.56,1.57-2.78,9.82,10.32-2,3.52-13.95-3,1.63-2.89,3.56.8Zm.31,4.15,2.94.68c.82.19,1.82.47,2.62.69l0,0c-.6-.58-1.4-1.26-2-1.84l-2.12-2.13Z"/><path class="cls-1" d="M201.47,185.8l10.31,8.91-2.35,2.72-5.63-1.12a38,38,0,0,1-5-1.37l0,.05a49.14,49.14,0,0,1,4.47,3.51l3,2.6-1.85,2.14-10.31-8.9,2.11-2.45,5.88,1.23a51,51,0,0,1,5.19,1.36l0-.06c-1.41-1.11-2.89-2.34-4.58-3.79l-3.1-2.68Z"/><polygon class="cls-1" points="199.78 207.5 197.37 209.45 190.43 200.87 186.22 204.27 184.59 202.26 191.21 196.91 199.78 207.5"/><rect class="cls-1" x="182.62" y="203.72" width="3.09" height="13.63" transform="translate(-83.18 128.27) rotate(-31.72)"/><path class="cls-1" d="M165.69,212.68a15.5,15.5,0,0,1,3.88-2.49,7.61,7.61,0,0,1,5.82-.49,6.64,6.64,0,0,1,3.71,3.8c1.76,4.18-.25,7.85-4.36,9.61A9.51,9.51,0,0,1,171,224l-.37-2.52a7.61,7.61,0,0,0,3.15-.71c2.36-1,3.57-3.11,2.41-5.83a4.1,4.1,0,0,0-5.7-2.42,4,4,0,0,0-1.31.78l1.12,2.62,1.93-.82,1,2.21-4.67,2Zm12.22,12.59a1,1,0,0,0-1.46-.39,1.13,1.13,0,0,0-.81,1.36l-1.43.61c-.56-1.36-.19-2.69,1.6-3.45s3-.11,3.6,1.23Z"/><rect class="cls-1" x="160.53" y="213.16" width="3.09" height="13.62" transform="translate(-50.07 47.78) rotate(-14.55)"/></g></g></svg>